**ABCDEFGHIJKLMNOPQRSTUVWXYZabcdefghijklmnopqrstuvwxyz**************************
**PARASOLID !"#$%&'()*+,-./:;<=>?@[\]^_`{|}~0123456789**************************
**PART1;
MC=^_;
MC_MODEL=genuineintel family 6 model 14 stepping 4, intel(r) xeon(r) cpu e5-2620 v2 @ 2.10ghz;
MC_ID=^_;
OS=windows nt (x64);
OS_RELEASE=6.3 windows 10 pro (build 19045) ;
FRU=mdc_ugii_v7.0_djl_can_vrh;
APPL=unigraphics;
SITE=unknown;
USER=^_;
FORMAT=text;
GUISE=transmit;
KEY=olhal_M42;
FILE=^_;
DATE=7-apr-2025;
**PART2;
SCH=SCH_3601193_36001;
USFLD_SIZE=0;
**PART3;
**END_OF_HEADER*****************************************************************
T51 : TRANSMIT FILE created by modeller version 360119317 SCH_1400000_140000 12
 1 383 2 3 0 0 0 0 1e3 1e-8 0 0 0 1 0 1 1 4 5 6 7 8 9 10 81 1 2 366 11 1 12 0 0
 0 13 70 3 0 4 T1 0 0 8 20 1 14 14 13 4 107 0 1 0 15 0 0 16 0 54 5 14 0 17 18 0
 19 -0 0 .08 1 0 0 .056 .016 0 0 -1 38 6 65 0 9 20 0 0 +5 21 22 23 24 29 7 38 0
 10 25 0 .01463503149308596 -.0393677006338307 .0315000000000175 19 8 248 0 1 16
 0 26 V16 9 63 27 ?28 0 29 6 0 0 1 18 10 36 0 30 0 31 7 ?1 17 30 0 32 33 34 10 3
5 36 0 37 -18 31 161 0 38 10 39 25 ?1 17 38 0 40 41 42 31 43 44 0 45 -18 39 165
 0 33 31 46 47 ?1 29 25 265 0 31 47 7 -.01424836478461284 -.04004040585414445 .0
31 29 47 266 0 39 48 25 .0142483647846311 -.04004040585413795 .031 29 48 267 0 4
6 49 47 .01424836478461284 .04004040585414445 .031 18 46 160 0 50 39 51 48 ?1 29
 49 268 0 51 52 48 -.0142483647846311 .04004040585413795 .031 18 51 162 0 53 46
 54 49 ?1 29 52 269 0 54 55 49 -.01463503149309206 .0393677006338471 .0315 18 54
 164 0 56 51 57 52 ?1 29 55 270 0 57 58 52 .0146350314930735 .039367700633854 .0
315 18 57 166 0 34 54 59 55 ?1 29 58 272 0 59 0 55 -.0146350314930735 -.03936770
0633854 .0315 18 59 167 0 60 57 0 58 ?1 17 60 0 61 62 45 59 63 64 0 65 -15 61 19
8 0 60 66 0 17 62 0 61 53 60 54 65 67 0 28 -17 45 0 61 60 53 31 41 68 0 63 -17 6
3 0 69 43 70 31 60 64 0 0 +16 64 49 71 ?63 72 44 73 0 0 1 17 65 0 74 56 56 59 62
 67 0 70 +15 74 188 0 65 75 0 17 56 0 74 65 65 54 70 76 0 62 +16 67 124 77 ?65 3
6 78 79 36 36 1 17 70 0 69 63 28 59 56 76 0 0 -15 69 34 0 80 17 0 17 28 0 69 70
 80 54 53 9 0 0 +16 76 57 81 ?56 29 72 82 83 83 1 81 1 81 369 84 76 85 0 86 87 8
8 16 29 60 86 ?80 9 76 20 0 0 1 16 72 53 87 ?89 76 64 90 0 0 1 38 82 43 0 83 91
 92 0 +5 93 94 95 95 16 83 41 96 ?37 44 97 82 76 76 1 81 1 96 373 84 83 98 0 99
 100 101 17 37 0 102 35 35 10 103 83 0 104 +16 44 45 99 ?43 64 83 92 0 0 1 16 97
 37 100 ?104 83 105 91 0 0 1 81 1 100 374 84 97 106 0 96 107 108 17 104 0 69 103
 43 10 33 97 0 0 +16 105 137 107 ?109 97 110 111 0 0 1 38 91 39 0 97 111 82 0 +5
 21 112 113 114 31 111 258 0 105 115 91 0 +0 0 -.063 0 0 -1 -1 0 0 .0205 52 21 2
54 0 116 117 118 119 +0 0 .031 0 0 -1 .0425 .707106781186548 .707106781186548 -1
 0 0 40 2 112 0 1 2 2552079280159905e-20 .055252233681772 ??.0142481978355197 -.
04004067754771255 .0309998 .01463517430136892 -.03936743417100675 .0315002 41 1
 113 L.0142481978355197 -.04004067754771255 .0309998 41 1 114 L.0146351743013689
2 -.03936743417100675 .0315002 14 116 189 120 ?66 75 32 4 21 +66 66 66 75 26 51
 117 255 0 15 121 21 122 +0 0 .0315 0 0 -1 .0425 -1 0 0 52 118 253 0 123 21 124
 0 +0 0 0 0 0 1 .042 .707106781186548 .707106781186548 1 0 0 141 119 91 125 126
 21 141 125 6 127 119 21 141 126 73 119 127 21 38 73 51 0 64 92 90 0 +5 21 128 1
29 130 141 127 90 126 125 21 38 90 55 0 72 73 20 0 +5 21 131 132 133 38 20 62 0
 29 90 6 0 +5 117 134 135 136 40 2 131 0 1 2 2552079280149765e-20 .0552522336817
72 ??.0146351743013689 .03936743417100675 .0315002 .01424819783551974 .040040677
54771255 .0309998 41 1 132 L.0146351743013689 .03936743417100675 .0315002 41 1 1
33 L.01424819783551974 .04004067754771255 .0309998 40 8 134 0 1 8 .0009143094093
15763 .3480661731920685 ??.01424845418478164 .0400403740410124 .0310002 .0113895
3841826538 .04094543215816455 .0266676918587619 .00722226803497935 .041881843851
85205 .0235659855500123 .002365856929280115 .0424340985645999 .02205130499138195
 -.002792722663812075 .04240814426643815 .02211873092445755 -.00766687130272626
 .04180274015453335 .02379840946454085 -.01164431599241348 .04087370676937465 .0
269458558757551 -.01424845418478164 .0400403740410124 .0310002 41 1 135 L.014248
45418478164 .0400403740410124 .0310002 41 1 136 L-.01424845418478164 .0400403740
410124 .0310002 38 92 47 0 44 82 73 0 +5 117 137 138 139 40 2 128 0 1 2 25520792
80149765e-20 .055252233681772 ??-.0146351743013689 -.03936743417100675 .0315002
 -.01424819783551974 -.04004067754771255 .0309998 41 1 129 L-.0146351743013689 -
.03936743417100675 .0315002 41 1 130 L-.01424819783551974 -.04004067754771255 .0
309998 40 8 137 0 1 8 .000914309409315763 .3480661731920685 ??-.0142484541847816
4 -.0400403740410124 .0310002 -.01138953841826538 -.04094543215816455 .026667691
8587619 -.00722226803497935 -.04188184385185205 .0235659855500123 -.002365856929
280115 -.0424340985645999 .02205130499138195 .002792722663812075 -.0424081442664
3815 .02211873092445755 .00766687130272626 -.04180274015453335 .0237984094645408
5 .01164431599241348 -.04087370676937465 .0269458558757551 .01424845418478164 -.
0400403740410124 .0310002 41 1 138 L-.01424845418478164 -.0400403740410124 .0310
002 41 1 139 L.01424845418478164 -.0400403740410124 .0310002 14 123 242 140 ?17
 141 142 4 118 +0 0 17 141 26 50 124 252 0 143 118 144 0 +0 0 -.063 0 0 -1 -1 0
 0 14 143 210 145 ?146 147 148 4 124 +0 0 146 147 26 51 144 251 0 147 124 18 0 -
0 0 -.063 0 0 1 .021 1 0 0 14 147 204 149 ?143 66 150 4 144 -0 0 143 66 26 52 18
 250 0 146 144 5 0 +0 0 -.0625 0 0 1 .021 .707106781186548 .707106781186548 1 0
 0 14 146 215 151 ?141 143 152 4 18 +0 0 141 143 26 81 1 151 362 84 146 153 0 14
5 154 155 14 141 231 154 ?123 146 156 4 121 +0 0 123 146 26 15 152 219 0 157 146
 158 13 26 249 0 0 0 0 0 0 8 15 14 15 221 159 ?160 0 161 4 117 +0 0 160 0 26 81
 1 159 355 84 15 162 0 0 163 164 14 160 179 163 ?75 15 102 4 93 -75 75 75 15 26
 15 161 172 0 165 15 40 17 165 0 161 165 165 0 166 167 0 0 +15 40 173 0 50 15 0
 17 50 0 40 42 41 46 80 29 0 168 -17 42 0 40 38 50 39 168 78 0 43 +17 41 0 40 50
 38 51 45 68 0 80 +17 80 0 69 28 89 51 50 29 0 0 +17 168 0 32 34 33 46 42 78 0 8
9 -15 32 193 0 34 116 0 17 34 0 32 30 168 57 89 72 0 35 -17 33 0 32 168 30 39 10
4 97 0 42 -16 78 114 169 ?42 67 68 170 68 68 1 17 89 0 69 80 103 46 34 72 0 0 +1
7 103 0 69 89 104 57 37 83 0 0 -81 1 169 381 84 78 171 0 77 172 173 16 68 112 17
2 ?41 78 167 170 78 78 1 31 170 263 0 68 174 79 0 +0 0 .031 0 0 -1 -1 0 0 .0425
 31 174 264 0 167 0 170 0 -0 0 5e-4 0 0 -1 -1 0 0 .0425 31 79 262 0 67 170 175 0
 -0 0 .0315 0 0 -1 -1 0 0 .042 31 175 261 0 176 79 177 0 +0 0 0 0 0 -1 -1 0 0 .0
42 16 176 152 178 ?179 180 36 175 0 0 1 31 177 260 0 180 175 115 0 -0 0 0 0 0 -1
 1 1224646799147352e-31 0 .021 16 180 148 181 ?182 110 176 177 0 0 1 31 115 259
 0 110 177 111 0 -0 0 -.0625 0 0 -1 -1 0 0 .021 16 110 135 183 ?184 105 180 115
 0 0 1 81 1 183 376 84 110 185 0 107 181 186 17 184 0 150 184 184 0 187 110 0 0
 +15 150 208 0 184 147 188 17 187 0 158 187 187 0 184 110 0 0 -15 158 220 0 187
 146 0 15 188 209 0 189 147 0 17 189 0 188 189 189 0 182 180 0 0 -17 182 0 156 1
82 182 0 189 180 0 0 +15 156 235 0 182 141 190 15 190 236 0 179 141 0 17 179 0 1
90 179 179 0 191 176 0 0 +17 191 0 192 191 191 0 179 176 0 0 -15 192 247 0 191 1
23 0 80 1 84 0 193 8001 0 0 0 0 3 5 0 0 0 FFFFTFTFFFFFFF2 81 1 185 317 194 110 0
 183 195 196 197 81 1 107 375 84 105 198 0 100 183 199 81 1 181 377 84 180 200 0
 183 178 201 83 3 186 .596078431372549 .666666666666667 .686274509803922 81 1 20
0 312 194 180 0 181 0 202 203 81 1 178 378 84 176 196 0 181 204 205 83 3 201 .59
6078431372549 .666666666666667 .686274509803922 81 1 196 318 194 176 0 178 185 2
06 207 81 1 204 379 84 36 208 0 178 77 209 83 3 205 .596078431372549 .6666666666
66667 .686274509803922 16 36 146 204 ?35 176 67 79 67 67 1 81 1 208 325 194 36 0
 204 210 106 211 81 1 77 380 84 67 195 0 204 169 212 83 3 209 .596078431372549 .
666666666666667 .686274509803922 81 1 195 316 194 67 0 77 198 185 213 83 3 212 .
596078431372549 .666666666666667 .686274509803922 80 1 194 214 215 9000 1 1 1 1
 1 1 1 1 0 FFFFTFTFFFFFFF3 81 1 198 315 194 105 0 107 216 195 217 84 32 213 e1d5
a8b2c3068352cca4eaf9cbce4d7681 1 216 314 194 68 0 172 202 198 218 84 32 217 9f6d
8f7958ed9b66cf8c5a0ddbbc789181 1 172 382 84 68 216 0 169 219 220 81 1 202 313 19
4 167 0 219 200 216 221 84 32 218 71b4848bc20917a36aee571ef509d64516 167 108 219
 ?165 68 0 174 0 0 1 81 1 219 383 84 167 202 0 172 0 222 84 32 221 839eab02afbbd
e4296ca41e119cf390f83 3 222 .596078431372549 .666666666666667 .686274509803922 8
3 3 220 .596078431372549 .666666666666667 .686274509803922 79 15 215 UGS/ObjectS
tate81 1 210 324 194 44 0 99 223 208 224 81 1 106 326 194 97 0 100 208 171 225 8
4 32 211 2985f376f8e60df22c8f53a9686bd00281 1 171 327 194 78 0 169 106 85 226 84
 32 225 57fc2a81450adfd3195e1f6340126ddf81 1 85 328 194 76 0 81 171 227 228 84 3
2 226 2dfa267ec4715ded433f563a04312db281 1 227 329 194 143 0 229 85 230 231 84 3
2 228 7cef60f74d43804a257d6bfa5186c97981 3 229 342 232 143 227 145 0 233 234 235
 0 81 1 230 330 194 17 0 233 227 236 237 84 32 231 953548e5f4864988f0c54fa94a5c1
80b14 17 11 238 ?0 123 69 4 5 -0 0 0 123 26 81 3 233 343 232 17 230 238 229 239
 240 241 0 81 1 236 331 194 147 0 239 230 242 243 84 32 237 c9eb5aa7f7cf50e85684
ebacbad4769781 3 239 344 232 147 236 149 233 162 244 245 0 81 1 242 332 194 15 0
 162 236 246 247 84 32 243 162b9dca7a63750fdd2d19956da1427d81 3 162 345 232 15 2
42 159 239 248 249 250 0 81 1 246 333 194 141 0 251 242 252 253 84 32 247 157204
4e563355801d27eb9e5205127b81 3 251 348 232 141 246 154 254 153 255 256 0 81 1 25
2 334 194 75 0 248 246 257 258 84 32 253 9bb013d28c9a46abdd5744914f3b99ac14 75 2
26 259 ?116 160 74 4 93 -160 160 116 160 26 81 3 248 346 232 75 252 259 162 254
 260 261 0 81 1 257 335 194 146 0 153 252 262 263 84 32 258 9abe04a0ef1f0573b44c
4d6cf277a61581 3 153 349 232 146 257 151 251 264 265 266 0 81 1 262 336 194 123
 0 264 257 267 268 84 32 263 6926b0a948c2528fbe7345720768529381 3 264 350 232 12
3 262 140 153 269 270 271 0 81 1 267 337 194 66 0 269 262 272 273 84 32 268 3c69
0c8822c3f7e8725477b3b0f027c614 66 237 274 ?147 116 61 4 21 +116 116 147 116 26 8
1 3 269 351 232 66 267 274 264 275 276 277 0 81 1 272 338 194 116 0 275 267 278
 279 84 32 273 34d7019b6e758b97e8a6798e5f7595d581 3 275 352 232 116 272 120 269
 0 280 281 0 81 1 278 339 194 160 0 254 272 0 282 84 32 279 7c357279601ade2bbf1c
a80984e973d381 3 254 347 232 160 278 163 248 251 283 284 0 84 32 282 4b42eb7b9e7
e498fdef200223bc4ed6280 3 232 285 286 9000 0 0 0 0 3 6 0 0 0 FFFFTFTTFFFFFF1 1 3
 81 1 163 356 84 160 254 0 159 259 287 82 1 283 0 82 1 284 117 81 1 259 357 84 7
5 248 0 163 120 288 83 3 287 .596078431372549 .666666666666667 .686274509803922
 81 1 120 358 84 116 275 0 259 274 289 83 3 288 .596078431372549 .66666666666666
7 .686274509803922 81 1 274 359 84 66 269 0 120 149 290 83 3 289 .59607843137254
9 .666666666666667 .686274509803922 81 1 149 360 84 147 239 0 274 145 291 83 3 2
90 .596078431372549 .666666666666667 .686274509803922 81 1 145 361 84 143 229 0
 149 151 292 83 3 291 .596078431372549 .666666666666667 .686274509803922 83 3 29
2 .596078431372549 .666666666666667 .686274509803922 79 27 286 MONIKER/MONIKER_D
ATA_ATTRIB82 1 280 0 82 1 281 124 82 1 276 0 82 1 277 124 81 1 140 364 84 123 26
4 0 154 238 293 82 1 270 0 82 1 271 123 81 1 154 363 84 141 251 0 151 140 294 81
 1 238 365 84 17 233 0 140 27 295 83 3 293 .596078431372549 .666666666666667 .68
6274509803922 81 1 27 367 84 9 223 0 238 86 296 83 3 295 .596078431372549 .66666
6666666667 .686274509803922 81 1 223 323 194 9 0 27 297 210 298 81 1 86 368 84 2
9 206 0 27 81 299 83 3 296 .596078431372549 .666666666666667 .686274509803922 81
 1 206 319 194 29 0 86 196 98 300 83 3 299 .596078431372549 .666666666666667 .68
6274509803922 81 1 98 320 194 83 0 96 206 301 302 84 32 300 39eb2cbc08bbcf579454
bbf0841e010781 1 301 321 194 72 0 87 98 297 303 84 32 302 77271bc12f9b8e03118e96
f39866d52781 1 87 370 84 72 301 0 81 71 304 81 1 297 322 194 64 0 71 301 223 305
 84 32 303 96f4437fbb79a7f9ccf351565c5dc4cc81 1 71 371 84 64 297 0 87 99 306 84
 32 305 7f52ca502e73200e4de39d5c42652af681 1 99 372 84 44 210 0 71 96 307 83 3 3
06 .596078431372549 .666666666666667 .686274509803922 83 3 307 .596078431372549
 .666666666666667 .686274509803922 83 3 304 .596078431372549 .666666666666667 .6
86274509803922 84 32 298 394e56735f66425fdb5ac0ab118023a283 3 294 .5960784313725
49 .666666666666667 .686274509803922 82 1 265 0 82 1 266 122 82 1 260 0 82 1 261
 117 50 93 257 0 160 0 121 308 +0 0 .0315 0 0 -1 -1 0 0 50 121 256 0 141 93 117
 0 +0 0 0 0 0 -1 -1 0 0 141 308 82 308 308 93 82 1 255 0 82 1 256 118 82 1 249 0
 82 1 250 116 82 1 244 0 82 1 245 110 82 1 240 0 82 1 241 69 82 1 234 0 82 1 235
 24 84 32 224 bba4608f7bd38b246e44d7bbed34fe3817 35 0 102 37 37 57 30 36 0 103 +
15 102 183 0 35 160 0 84 32 207 a1692c24d556e7ab9ed834884241704084 32 203 67637f
60b9f99795c97e8af93195540483 3 199 .596078431372549 .666666666666667 .6862745098
03922 84 32 197 d72cf33184838f6e48bcde7f025ec7a879 15 193 SDL/TYSA_COLOUR83 3 17
3 .596078431372549 .666666666666667 .686274509803922 17 43 0 69 104 63 39 38 44
 0 0 +17 166 0 142 166 166 0 165 167 0 0 -15 142 246 0 166 123 192 83 3 164 .596
078431372549 .666666666666667 .686274509803922 17 157 0 152 157 157 0 109 105 0
 0 -17 109 0 148 109 109 0 157 105 0 0 +15 148 214 0 109 143 0 83 3 155 .5960784
31372549 .666666666666667 .686274509803922 141 122 92 309 309 117 141 309 20 122
 122 117 83 3 108 .596078431372549 .666666666666667 .686274509803922 83 3 101 .5
96078431372549 .666666666666667 .686274509803922 40 24 94 0 1 24 .00510661783091
175 .389549727867379 ??-.01413329402510256 0 .0315 -.0158608586852619 .032 .0315
 -.01402579341007438 .04129568301547115 .0315 -.01079217413145684 .0473946166290
807 .0315 -.00704798119868704 .0509789139998419 .0315 -.00310499466958854 .05280
19101336485 .0315 .001240717503858362 .0531489855629256 .0315 .00510125518935879
 .0520788545048015 .0315 .00855365796476764 .0498097318847553 .0315 .01224791419
799814 .0451972029339995 .0315 .015147676121727 .03724747138195215 .0315 .015491
61813962575 .01875161444928585 .0315 .0153682735543689 -.0174640830379659 .0315
 .01545237982968685 -.03557799356329575 .0315 .01357617952431732 -.0424702628987
821 .0315 .00979080688613499 -.0485922895940419 .0315 .0060229912278341 -.051610
6390984129 .0315 .001408553263566318 -.0531301081588803 .0315 -.0028090418296412
95 -.0528774585174609 .0315 -.00649300687614951 -.0513361500698386 .0315 -.00980
597598227685 -.0485756858611188 .0315 -.01333042927053362 -.04304770716217805 .0
315 -.0157298257010134 -.0334700925697903 .0315 -.01413329402510256 -18245186763
76275e-33 .0315 41 1 95 H-.01413329402510256 -1824518676376275e-33 .0315 83 3 88
 .596078431372549 .666666666666667 .686274509803922 17 53 0 61 45 62 51 28 9 0 4
1 -19 16 1 0 1 0 8 4 S40 2 22 0 1 2 2552079280159905e-20 .055252233681772 ??-.01
42481978355197 .04004067754771255 .0309998 -.01463517430136892 .0393674341710067
5 .0315002 41 1 23 L-.0142481978355197 .04004067754771255 .0309998 41 1 24 L-.01
463517430136892 .03936743417100675 .0315002 141 19 91 310 311 5 141 310 6 312 19
 5 141 311 82 19 313 5 141 313 92 311 314 5 141 314 73 313 315 5 141 315 90 314
 312 5 141 312 20 315 310 5 74 20 14 8 0 316 278 317 275 318 12 219 2 0 0 0 0 0
 0 0 0 0 0 0 0 81 2 316 311 319 1 0 317 0 0 320 321 81 1 317 341 322 1 316 318 0
 0 323 81 3 318 353 324 1 317 12 0 0 325 326 327 81 2 12 354 328 1 318 2 0 0 329
 0 80 2 328 324 330 9000 2 2 2 2 3 6 0 0 0 FFTFFFFFFFFFFF2 3 83 1 329 9530 79 22
 330 MONIKER/BODY_ID_ATTRIB80 3 324 232 331 9000 0 0 0 0 3 6 0 0 0 FFTFFFFFFFFFF
F3 3 1 84 38 325 {3e200c42-0c42-4e73-880f-bd9b0578e844}84 21 326 NX 2406.7001-El
eandro82 1 327 0 79 25 331 MONIKER/GUID_TABLE_ATTRIB80 1 322 332 333 9000 0 0 0
 0 3 5 0 0 0 FFTFFFFFFFFFFF1 82 1 323 -1 79 19 333 UG2/PMARK_ATTRIBUTE80 2 319 3
34 335 8004 0 0 0 0 3 5 0 0 0 FFTFFFFFFFFFFF2 3 83 1 320 7830.64 84 8 321 Kg/Cu
 M 79 16 335 SDL/TYSA_DENSITY80 1 11 84 336 8040 0 0 0 0 3 5 0 0 0 TTTFFFFFFFFFF
F2 83 3 13 .596078431372549 .666666666666667 .686274509803922 79 17 336 SDL/TYSA
_COLOUR_21 0 
