**ABCDEFGHIJKLMNOPQRSTUVWXYZabcdefghijklmnopqrstuvwxyz**************************
**PARASOLID !"#$%&'()*+,-./:;<=>?@[\]^_`{|}~0123456789**************************
**PART1;
MC=^_;
MC_MODEL=genuineintel family 6 model 14 stepping 4, intel(r) xeon(r) cpu e5-2620 v2 @ 2.10ghz;
MC_ID=^_;
OS=windows nt (x64);
OS_RELEASE=6.3 windows 10 pro (build 19045) ;
FRU=mdc_ugii_v7.0_djl_can_vrh;
APPL=unigraphics;
SITE=unknown;
USER=^_;
FORMAT=text;
GUISE=transmit;
KEY=olhal_M16;
FILE=^_;
DATE=7-apr-2025;
**PART2;
SCH=SCH_3601193_36001;
USFLD_SIZE=0;
**PART3;
**END_OF_HEADER*****************************************************************
T51 : TRANSMIT FILE created by modeller version 360119317 SCH_1400000_140000 12
 1 383 2 3 0 0 0 0 1e3 1e-8 0 0 0 1 0 1 1 4 5 6 7 8 9 10 81 1 2 366 11 1 12 0 0
 0 13 70 3 0 4 T1 0 0 8 20 1 14 14 13 4 107 0 1 0 15 0 0 16 0 54 5 14 0 17 18 0
 19 -0 0 .0345 1 0 0 .0245 .007 0 0 -1 38 6 65 0 9 20 0 0 +5 21 22 23 24 29 7 38
 0 10 25 0 .00670820393250463 -.0161632298752303 .01350000000001122 19 8 248 0 1
 16 0 26 V16 9 63 27 ?28 0 29 6 0 0 1 18 10 36 0 30 0 31 7 ?1 17 30 0 32 33 34 1
0 35 36 0 37 -18 31 161 0 38 10 39 25 ?1 17 38 0 40 41 42 31 43 44 0 45 -18 39 1
65 0 33 31 46 47 ?1 29 25 265 0 31 47 7 -.00641738579821504 -.016817168593936 .0
13 29 47 266 0 39 48 25 .00641738579822198 -.01681716859393335 .013 29 48 267 0
 46 49 47 .00641738579821504 .016817168593936 .013 18 46 160 0 50 39 51 48 ?1 29
 49 268 0 51 52 48 -.00641738579822198 .01681716859393335 .013 18 51 162 0 53 46
 54 49 ?1 29 52 269 0 54 55 49 -.00670820393250893 .01616322987524065 .0135 18 5
4 164 0 56 51 57 52 ?1 29 55 270 0 57 58 52 .00670820393249937 .0161632298752446
 .0135 18 57 166 0 34 54 59 55 ?1 29 58 272 0 59 0 55 -.00670820393249937 -.0161
632298752446 .0135 18 59 167 0 60 57 0 58 ?1 17 60 0 61 62 45 59 63 64 0 65 -15
 61 198 0 60 66 0 17 62 0 61 53 60 54 65 67 0 28 -17 45 0 61 60 53 31 41 68 0 63
 -17 63 0 69 43 70 31 60 64 0 0 +16 64 49 71 ?63 72 44 73 0 0 1 17 65 0 74 56 56
 59 62 67 0 70 +15 74 188 0 65 75 0 17 56 0 74 65 65 54 70 76 0 62 +16 67 124 77
 ?65 36 78 79 36 36 1 17 70 0 69 63 28 59 56 76 0 0 -15 69 34 0 80 17 0 17 28 0
 69 70 80 54 53 9 0 0 +16 76 57 81 ?56 29 72 82 83 83 1 81 1 81 369 84 76 85 0 8
6 87 88 16 29 60 86 ?80 9 76 20 0 0 1 16 72 53 87 ?89 76 64 90 0 0 1 38 82 43 0
 83 91 92 0 +5 93 94 95 95 16 83 41 96 ?37 44 97 82 76 76 1 81 1 96 373 84 83 98
 0 99 100 101 17 37 0 102 35 35 10 103 83 0 104 +16 44 45 99 ?43 64 83 92 0 0 1
 16 97 37 100 ?104 83 105 91 0 0 1 81 1 100 374 84 97 106 0 96 107 108 17 104 0
 69 103 43 10 33 97 0 0 +16 105 137 107 ?109 97 110 111 0 0 1 38 91 39 0 97 111
 82 0 +5 21 112 113 114 31 111 258 0 105 115 91 0 +0 0 -.026 0 0 -1 -1 0 0 .0075
 52 21 254 0 116 117 118 119 +0 0 .013 0 0 -1 .018 .707106781186548 .70710678118
6548 -1 0 0 40 2 112 0 1 2 519407168928597e-19 .118836942445299 ??.0064172453037
093 -.0168174362716801 .0129998 .00670829762589229 -.0161629744478684 .0135002 4
1 1 113 L.0064172453037093 -.0168174362716801 .0129998 41 1 114 L.00670829762589
229 -.0161629744478684 .0135002 14 116 189 120 ?66 75 32 4 21 +66 66 66 75 26 51
 117 255 0 15 121 21 122 +0 0 .0135 0 0 -1 .018 -1 0 0 52 118 253 0 123 21 124 0
 +0 0 0 0 0 1 .0175 .707106781186548 .707106781186548 1 0 0 141 119 91 125 126 2
1 141 125 6 127 119 21 141 126 73 119 127 21 38 73 51 0 64 92 90 0 +5 21 128 129
 130 141 127 90 126 125 21 38 90 55 0 72 73 20 0 +5 21 131 132 133 38 20 62 0 29
 90 6 0 +5 117 134 135 136 40 2 131 0 1 2 519407168928605e-19 .118836942445299 ?
?.00670829762589229 .0161629744478684 .0135002 .0064172453037093 .01681743627168
01 .0129998 41 1 132 L.00670829762589229 .0161629744478684 .0135002 41 1 133 L.0
064172453037093 .0168174362716801 .0129998 40 9 134 0 1 9 .0004014317417267995 .
3483117865563535 ??.00641746226106319 .016817139415722 .0130002 .005273205907404
74 .01721026726864265 .01103029002973792 .003529380162658635 .01765059420153985
 .009570882899622 .00144542448978447 .01794187136405595 .00879284214803809 -.000
823497034543757 .01798115270593345 .00869557761382885 -.003020489969810645 .0177
447637443352 .00930724365485243 -.00486426473693897 .0173302893388706 .010585461
34531416 -.00614850708306402 .01691732427570955 .01238201955092368 -.00641746226
106319 .016817139415722 .0130002 41 1 135 L.00641746226106319 .016817139415722 .
0130002 41 1 136 L-.00641746226106319 .016817139415722 .0130002 38 92 47 0 44 82
 73 0 +5 117 137 138 139 40 2 128 0 1 2 519407168928605e-19 .118836942445299 ??-
.00670829762589229 -.0161629744478684 .0135002 -.0064172453037093 -.016817436271
6801 .0129998 41 1 129 L-.00670829762589229 -.0161629744478684 .0135002 41 1 130
 L-.0064172453037093 -.0168174362716801 .0129998 40 9 137 0 1 9 .000401431741726
7995 .3483117865563535 ??-.00641746226106319 -.016817139415722 .0130002 -.005273
20590740474 -.01721026726864265 .01103029002973792 -.003529380162658635 -.017650
59420153985 .009570882899622 -.00144542448978447 -.01794187136405595 .0087928421
4803809 .000823497034543757 -.01798115270593345 .00869557761382885 .003020489969
810645 -.0177447637443352 .00930724365485243 .00486426473693897 -.01733028933887
06 .01058546134531416 .00614850708306402 -.01691732427570955 .01238201955092368
 .00641746226106319 -.016817139415722 .0130002 41 1 138 L-.00641746226106319 -.0
16817139415722 .0130002 41 1 139 L.00641746226106319 -.016817139415722 .0130002
 14 123 242 140 ?17 141 142 4 118 +0 0 17 141 26 50 124 252 0 143 118 144 0 +0 0
 -.026 0 0 -1 -1 0 0 14 143 210 145 ?146 147 148 4 124 +0 0 146 147 26 51 144 25
1 0 147 124 18 0 -0 0 -.026 0 0 1 .008 1 0 0 14 147 204 149 ?143 66 150 4 144 -0
 0 143 66 26 52 18 250 0 146 144 5 0 +0 0 -.0255 0 0 1 .008 .707106781186548 .70
7106781186548 1 0 0 14 146 215 151 ?141 143 152 4 18 +0 0 141 143 26 81 1 151 36
2 84 146 153 0 145 154 155 14 141 231 154 ?123 146 156 4 121 +0 0 123 146 26 15
 152 219 0 157 146 158 13 26 249 0 0 0 0 0 0 8 15 14 15 221 159 ?160 0 161 4 117
 +0 0 160 0 26 81 1 159 355 84 15 162 0 0 163 164 14 160 179 163 ?75 15 102 4 93
 -75 75 75 15 26 15 161 172 0 165 15 40 17 165 0 161 165 165 0 166 167 0 0 +15 4
0 173 0 50 15 0 17 50 0 40 42 41 46 80 29 0 168 -17 42 0 40 38 50 39 168 78 0 43
 +17 41 0 40 50 38 51 45 68 0 80 +17 80 0 69 28 89 51 50 29 0 0 +17 168 0 32 34
 33 46 42 78 0 89 -15 32 193 0 34 116 0 17 34 0 32 30 168 57 89 72 0 35 -17 33 0
 32 168 30 39 104 97 0 42 -16 78 114 169 ?42 67 68 170 68 68 1 17 89 0 69 80 103
 46 34 72 0 0 +17 103 0 69 89 104 57 37 83 0 0 -81 1 169 381 84 78 171 0 77 172
 173 16 68 112 172 ?41 78 167 170 78 78 1 31 170 263 0 68 174 79 0 +0 0 .013 0 0
 -1 -1 0 0 .018 31 174 264 0 167 0 170 0 -0 0 5e-4 0 0 -1 -1 0 0 .018 31 79 262
 0 67 170 175 0 -0 0 .0135 0 0 -1 -1 0 0 .0175 31 175 261 0 176 79 177 0 +0 0 0
 0 0 -1 -1 0 0 .0175 16 176 152 178 ?179 180 36 175 0 0 1 31 177 260 0 180 175 1
15 0 -0 0 0 0 0 -1 1 1224646799147352e-31 0 .008 16 180 148 181 ?182 110 176 177
 0 0 1 31 115 259 0 110 177 111 0 -0 0 -.0255 0 0 -1 -1 0 0 .008 16 110 135 183
 ?184 105 180 115 0 0 1 81 1 183 376 84 110 185 0 107 181 186 17 184 0 150 184 1
84 0 187 110 0 0 +15 150 208 0 184 147 188 17 187 0 158 187 187 0 184 110 0 0 -1
5 158 220 0 187 146 0 15 188 209 0 189 147 0 17 189 0 188 189 189 0 182 180 0 0
 -17 182 0 156 182 182 0 189 180 0 0 +15 156 235 0 182 141 190 15 190 236 0 179
 141 0 17 179 0 190 179 179 0 191 176 0 0 +17 191 0 192 191 191 0 179 176 0 0 -1
5 192 247 0 191 123 0 80 1 84 0 193 8001 0 0 0 0 3 5 0 0 0 FFFFTFTFFFFFFF2 81 1
 185 317 194 110 0 183 195 196 197 81 1 107 375 84 105 198 0 100 183 199 81 1 18
1 377 84 180 200 0 183 178 201 83 3 186 .596078431372549 .666666666666667 .68627
4509803922 81 1 200 312 194 180 0 181 0 202 203 81 1 178 378 84 176 196 0 181 20
4 205 83 3 201 .596078431372549 .666666666666667 .686274509803922 81 1 196 318 1
94 176 0 178 185 206 207 81 1 204 379 84 36 208 0 178 77 209 83 3 205 .596078431
372549 .666666666666667 .686274509803922 16 36 146 204 ?35 176 67 79 67 67 1 81
 1 208 325 194 36 0 204 210 106 211 81 1 77 380 84 67 195 0 204 169 212 83 3 209
 .596078431372549 .666666666666667 .686274509803922 81 1 195 316 194 67 0 77 198
 185 213 83 3 212 .596078431372549 .666666666666667 .686274509803922 80 1 194 21
4 215 9000 1 1 1 1 1 1 1 1 0 FFFFTFTFFFFFFF3 81 1 198 315 194 105 0 107 216 195
 217 84 32 213 de8e18edfb493f2baaf7f979cc6c887181 1 216 314 194 68 0 172 202 198
 218 84 32 217 19f1c193b6b3e79eab7da7180f26b3f581 1 172 382 84 68 216 0 169 219
 220 81 1 202 313 194 167 0 219 200 216 221 84 32 218 1986798bf7bd63b70ad6309c2a
b2444816 167 108 219 ?165 68 0 174 0 0 1 81 1 219 383 84 167 202 0 172 0 222 84
 32 221 c07ada9bd5337026846d20e67f05198e83 3 222 .596078431372549 .6666666666666
67 .686274509803922 83 3 220 .596078431372549 .666666666666667 .686274509803922
 79 15 215 UGS/ObjectState81 1 210 324 194 44 0 99 223 208 224 81 1 106 326 194
 97 0 100 208 171 225 84 32 211 09ff3dd96371065946cc76262d71ddf581 1 171 327 194
 78 0 169 106 85 226 84 32 225 3a20c1905c905e6e8da980c27f3f737a81 1 85 328 194 7
6 0 81 171 227 228 84 32 226 4327fca10cd358a9ead875995ad3d6b681 1 227 329 194 14
3 0 229 85 230 231 84 32 228 9dbbaa4035378ef49b64805c7f22581681 3 229 342 232 14
3 227 145 0 233 234 235 0 81 1 230 330 194 17 0 233 227 236 237 84 32 231 965b37
97ce5945119b52a2c4d5ae4be014 17 11 238 ?0 123 69 4 5 -0 0 0 123 26 81 3 233 343
 232 17 230 238 229 239 240 241 0 81 1 236 331 194 147 0 239 230 242 243 84 32 2
37 fcc726a28e3bc3e2f9496e4eb84630b381 3 239 344 232 147 236 149 233 162 244 245
 0 81 1 242 332 194 15 0 162 236 246 247 84 32 243 1d404e735c42934843bcb2fd3248c
51081 3 162 345 232 15 242 159 239 248 249 250 0 81 1 246 333 194 141 0 251 242
 252 253 84 32 247 d4a89b1c46c3620164c34dcfbe7605dd81 3 251 348 232 141 246 154
 254 153 255 256 0 81 1 252 334 194 75 0 248 246 257 258 84 32 253 936f77997e4e1
d554440b885e55c3c9914 75 226 259 ?116 160 74 4 93 -160 160 116 160 26 81 3 248 3
46 232 75 252 259 162 254 260 261 0 81 1 257 335 194 146 0 153 252 262 263 84 32
 258 9276b6815b468cca8c08099bb8874c5481 3 153 349 232 146 257 151 251 264 265 26
6 0 81 1 262 336 194 123 0 264 257 267 268 84 32 263 c72658db23bccffc24d9d6ff402
b442581 3 264 350 232 123 262 140 153 269 270 271 0 81 1 267 337 194 66 0 269 26
2 272 273 84 32 268 2eec4c82ecfc406a9a1c02fb4c11462414 66 237 274 ?147 116 61 4
 21 +116 116 147 116 26 81 3 269 351 232 66 267 274 264 275 276 277 0 81 1 272 3
38 194 116 0 275 267 278 279 84 32 273 e28adc4ea9611b9ac6033d5ac0be0aca81 3 275
 352 232 116 272 120 269 0 280 281 0 81 1 278 339 194 160 0 254 272 0 282 84 32
 279 900050d9d51c882a54200447fe3a65e681 3 254 347 232 160 278 163 248 251 283 28
4 0 84 32 282 aa73357a7d71738edaa5a31c2fe7328280 3 232 285 286 9000 0 0 0 0 3 6
 0 0 0 FFFFTFTTFFFFFF1 1 3 81 1 163 356 84 160 254 0 159 259 287 82 1 283 0 82 1
 284 117 81 1 259 357 84 75 248 0 163 120 288 83 3 287 .596078431372549 .6666666
66666667 .686274509803922 81 1 120 358 84 116 275 0 259 274 289 83 3 288 .596078
431372549 .666666666666667 .686274509803922 81 1 274 359 84 66 269 0 120 149 290
 83 3 289 .596078431372549 .666666666666667 .686274509803922 81 1 149 360 84 147
 239 0 274 145 291 83 3 290 .596078431372549 .666666666666667 .686274509803922 8
1 1 145 361 84 143 229 0 149 151 292 83 3 291 .596078431372549 .666666666666667
 .686274509803922 83 3 292 .596078431372549 .666666666666667 .686274509803922 79
 27 286 MONIKER/MONIKER_DATA_ATTRIB82 1 280 0 82 1 281 124 82 1 276 0 82 1 277 1
24 81 1 140 364 84 123 264 0 154 238 293 82 1 270 0 82 1 271 123 81 1 154 363 84
 141 251 0 151 140 294 81 1 238 365 84 17 233 0 140 27 295 83 3 293 .59607843137
2549 .666666666666667 .686274509803922 81 1 27 367 84 9 223 0 238 86 296 83 3 29
5 .596078431372549 .666666666666667 .686274509803922 81 1 223 323 194 9 0 27 297
 210 298 81 1 86 368 84 29 206 0 27 81 299 83 3 296 .596078431372549 .6666666666
66667 .686274509803922 81 1 206 319 194 29 0 86 196 98 300 83 3 299 .59607843137
2549 .666666666666667 .686274509803922 81 1 98 320 194 83 0 96 206 301 302 84 32
 300 9945cd438ae9d0ac1df361a3861477f381 1 301 321 194 72 0 87 98 297 303 84 32 3
02 6cb62472c5b213f866d5755903543f3b81 1 87 370 84 72 301 0 81 71 304 81 1 297 32
2 194 64 0 71 301 223 305 84 32 303 1c96804a604f767d9243c138add2658381 1 71 371
 84 64 297 0 87 99 306 84 32 305 47d25ed754616c37fda7215b2c7d88e581 1 99 372 84
 44 210 0 71 96 307 83 3 306 .596078431372549 .666666666666667 .686274509803922
 83 3 307 .596078431372549 .666666666666667 .686274509803922 83 3 304 .596078431
372549 .666666666666667 .686274509803922 84 32 298 b812c053393133086442172871b1d
cd383 3 294 .596078431372549 .666666666666667 .686274509803922 82 1 265 0 82 1 2
66 122 82 1 260 0 82 1 261 117 50 93 257 0 160 0 121 308 +0 0 .0135 0 0 -1 -1 0
 0 50 121 256 0 141 93 117 0 +0 0 0 0 0 -1 -1 0 0 141 308 82 308 308 93 82 1 255
 0 82 1 256 118 82 1 249 0 82 1 250 116 82 1 244 0 82 1 245 110 82 1 240 0 82 1
 241 69 82 1 234 0 82 1 235 24 84 32 224 964e429a40c7e7f199a333f618ae7d2517 35 0
 102 37 37 57 30 36 0 103 +15 102 183 0 35 160 0 84 32 207 d0caf9013ff958d0b34ea
f8cc162154f84 32 203 018a4c0b44670863cc810574e585cc9783 3 199 .596078431372549 .
666666666666667 .686274509803922 84 32 197 0119e6766421c75e221600793be8f2b579 15
 193 SDL/TYSA_COLOUR83 3 173 .596078431372549 .666666666666667 .686274509803922
 17 43 0 69 104 63 39 38 44 0 0 +17 166 0 142 166 166 0 165 167 0 0 -15 142 246
 0 166 123 192 83 3 164 .596078431372549 .666666666666667 .686274509803922 17 15
7 0 152 157 157 0 109 105 0 0 -17 109 0 148 109 109 0 157 105 0 0 +15 148 214 0
 109 143 0 83 3 155 .596078431372549 .666666666666667 .686274509803922 141 122 9
2 309 309 117 141 309 20 122 122 117 83 3 108 .596078431372549 .666666666666667
 .686274509803922 83 3 101 .596078431372549 .666666666666667 .686274509803922 40
 25 94 0 1 25 .00199719829744078 .3681478136264425 ??-.00606217782649107 0 .0135
 -.00696089703157203 .014 .0135 -.00619993500857743 .01813968120970745 .0135 -.0
0480671337747903 .02084454082315275 .0135 -.003167233878375695 .0224521810989631
5 .0135 -.001432056429402556 .02327970679756425 .0135 .000489301220974747 .02345
57371093048 .0135 .002199163014853865 .02300101980701125 .0135 .0037257877048808
55 .02201696537240445 .0135 .00534734321307336 .0200250641339877 .0135 .00661853
303784591 .01661712065717125 .0135 .00691150231094832 .01030108837627378 .0135 .
00627625103804276 -.00411936422054923 .0135 .00691353361326758 -.014635508229260
98 .0135 .00589017411008428 -.0189443635287957 .0135 .004483163306142075 -.02125
028606473575 .0135 .002799050367786905 -.02268921139734435 .0135 .00105632254516
6286 -.0233710575767032 .0135 -.000819782927855891 -.02341404879420925 .0135 -.0
02490944823334935 -.02286030552261465 .0135 -.00398809349706133 -.02177691493468
51 .0135 -.0055771321085921 -.01960691766556265 .0135 -.00675426391578275 -.0158
9698848398635 .0135 -.00655266405017266 -.00668304960155835 .0135 -.006062177826
49107 -1402902503260612e-34 .0135 41 1 95 H-.00606217782649107 -1402902503260612
e-34 .0135 83 3 88 .596078431372549 .666666666666667 .686274509803922 17 53 0 61
 45 62 51 28 9 0 41 -19 16 1 0 1 0 8 4 S40 2 22 0 1 2 519407168928597e-19 .11883
6942445299 ??-.0064172453037093 .0168174362716801 .0129998 -.00670829762589229 .
0161629744478684 .0135002 41 1 23 L-.0064172453037093 .0168174362716801 .0129998
 41 1 24 L-.00670829762589229 .0161629744478684 .0135002 141 19 91 310 311 5 141
 310 6 312 19 5 141 311 82 19 313 5 141 313 92 311 314 5 141 314 73 313 315 5 14
1 315 90 314 312 5 141 312 20 315 310 5 74 20 14 8 0 316 278 317 275 318 12 219
 2 0 0 0 0 0 0 0 0 0 0 0 0 81 2 316 311 319 1 0 317 0 0 320 321 81 1 317 341 322
 1 316 318 0 0 323 81 3 318 353 324 1 317 12 0 0 325 326 327 81 2 12 354 328 1 3
18 2 0 0 329 0 80 2 328 324 330 9000 2 2 2 2 3 6 0 0 0 FFTFFFFFFFFFFF2 3 83 1 32
9 9530 79 22 330 MONIKER/BODY_ID_ATTRIB80 3 324 232 331 9000 0 0 0 0 3 6 0 0 0 F
FTFFFFFFFFFFF3 3 1 84 38 325 {f63f0c7f-0c7f-4a33-92a3-d594dc84f5a4}84 21 326 NX
 2406.7001-Eleandro82 1 327 0 79 25 331 MONIKER/GUID_TABLE_ATTRIB80 1 322 332 33
3 9000 0 0 0 0 3 5 0 0 0 FFTFFFFFFFFFFF1 82 1 323 -1 79 19 333 UG2/PMARK_ATTRIBU
TE80 2 319 334 335 8004 0 0 0 0 3 5 0 0 0 FFTFFFFFFFFFFF2 3 83 1 320 7830.64 84
 8 321 Kg/Cu M 79 16 335 SDL/TYSA_DENSITY80 1 11 84 336 8040 0 0 0 0 3 5 0 0 0 T
TTFFFFFFFFFFF2 83 3 13 .596078431372549 .666666666666667 .686274509803922 79 17
 336 SDL/TYSA_COLOUR_21 0 
