**ABCDEFGHIJKLMNOPQRSTUVWXYZabcdefghijklmnopqrstuvwxyz**************************
**PARASOLID !"#$%&'()*+,-./:;<=>?@[\]^_`{|}~0123456789**************************
**PART1;
MC=^_;
MC_MODEL=genuineintel family 6 model 14 stepping 4, intel(r) xeon(r) cpu e5-2620 v2 @ 2.10ghz;
MC_ID=^_;
OS=windows nt (x64);
OS_RELEASE=6.3 windows 10 pro (build 19045) ;
FRU=mdc_ugii_v7.0_djl_can_vrh;
APPL=unigraphics;
SITE=unknown;
USER=^_;
FORMAT=text;
GUISE=transmit;
KEY=olhal_M24;
FILE=^_;
DATE=7-apr-2025;
**PART2;
SCH=SCH_3601193_36001;
USFLD_SIZE=0;
**PART3;
**END_OF_HEADER*****************************************************************
T51 : TRANSMIT FILE created by modeller version 360119317 SCH_1400000_140000 12
 1 383 2 3 0 0 0 0 1e3 1e-8 0 0 0 1 0 1 1 4 5 6 7 8 9 10 81 1 2 366 11 1 12 0 0
 0 13 70 3 0 4 T1 0 0 8 20 1 14 14 13 4 107 0 1 0 15 0 0 16 0 54 5 14 0 17 18 0
 19 -0 0 .048 1 0 0 .035 .01 0 0 -1 38 6 65 0 9 20 0 0 +5 21 22 23 24 29 7 38 0
 10 25 0 .0099215674164922 -.0224011718443479 .0195 19 8 248 0 1 16 0 26 V16 9 6
3 27 ?28 0 29 6 0 0 1 18 10 36 0 30 0 31 7 ?1 17 30 0 32 33 34 10 35 36 0 37 -18
 31 161 0 38 10 39 25 ?1 17 38 0 40 41 42 31 43 44 0 45 -18 39 165 0 33 31 46 47
 ?1 29 25 265 0 31 47 7 -.00979503206024485 -.0230012466387971 .019 29 47 266 0
 39 48 25 .00979503206025253 -.02300124663879385 .019 29 48 267 0 46 49 47 .0097
9503206024485 .0230012466387971 .019 18 46 160 0 50 39 51 48 ?1 29 49 268 0 51 5
2 48 -.00979503206025253 .02300124663879385 .019 18 51 162 0 53 46 54 49 ?1 29 5
2 269 0 54 55 49 -.00992156741649217 .0224011718443478 .0195 18 54 164 0 56 51 5
7 52 ?1 29 55 270 0 57 58 52 .00992156741649221 .0224011718443478 .0195 18 57 16
6 0 34 54 59 55 ?1 29 58 272 0 59 0 55 -.00992156741649221 -.0224011718443478 .0
195 18 59 167 0 60 57 0 58 ?1 17 60 0 61 62 45 59 63 64 0 65 -15 61 198 0 60 66
 0 17 62 0 61 53 60 54 65 67 0 28 -17 45 0 61 60 53 31 41 68 0 63 -17 63 0 69 43
 70 31 60 64 0 0 +16 64 49 71 ?63 72 44 73 0 0 1 17 65 0 74 56 56 59 62 67 0 70
 +15 74 188 0 65 75 0 17 56 0 74 65 65 54 70 76 0 62 +16 67 124 77 ?65 36 78 79
 36 36 1 17 70 0 69 63 28 59 56 76 0 0 -15 69 34 0 80 17 0 17 28 0 69 70 80 54 5
3 9 0 0 +16 76 57 81 ?56 29 72 82 83 83 1 81 1 81 369 84 76 85 0 86 87 88 16 29
 60 86 ?80 9 76 20 0 0 1 16 72 53 87 ?89 76 64 90 0 0 1 38 82 43 0 83 91 92 0 +5
 93 94 95 95 16 83 41 96 ?37 44 97 82 76 76 1 81 1 96 373 84 83 98 0 99 100 101
 17 37 0 102 35 35 10 103 83 0 104 +16 44 45 99 ?43 64 83 92 0 0 1 16 97 37 100
 ?104 83 105 91 0 0 1 81 1 100 374 84 97 106 0 96 107 108 17 104 0 69 103 43 10
 33 97 0 0 +16 105 137 107 ?109 97 110 111 0 0 1 38 91 39 0 97 111 82 0 +5 21 11
2 113 114 31 111 258 0 105 115 91 0 +0 0 -.036 0 0 -1 -1 0 0 .0115 52 21 254 0 1
16 117 118 119 +0 0 .019 0 0 -1 .025 .707106781186548 .707106781186548 -1 0 0 40
 2 112 0 1 2 3076620379126125e-20 .0775759089113398 ??.0097949685992025 -.023001
49104255275 .0189998 .00992160556806601 -.02240093620792935 .0195002 41 1 113 L.
0097949685992025 -.02300149104255275 .0189998 41 1 114 L.00992160556806601 -.022
40093620792935 .0195002 14 116 189 120 ?66 75 32 4 21 +66 66 66 75 26 51 117 255
 0 15 121 21 122 +0 0 .0195 0 0 -1 .025 -1 0 0 52 118 253 0 123 21 124 0 +0 0 0
 0 0 1 .0245 .707106781186548 .707106781186548 1 0 0 141 119 91 125 126 21 141 1
25 6 127 119 21 141 126 73 119 127 21 38 73 51 0 64 92 90 0 +5 21 128 129 130 14
1 127 90 126 125 21 38 90 55 0 72 73 20 0 +5 21 131 132 133 38 20 62 0 29 90 6 0
 +5 117 134 135 136 40 2 131 0 1 2 3076620379126215e-20 .0775759089113398 ??.009
92160556806601 .0224009362079293 .0195002 .0097949685992025 .02300149104255275 .
0189998 41 1 132 L.00992160556806601 .0224009362079293 .0195002 41 1 133 L.00979
49685992025 .02300149104255275 .0189998 40 10 134 0 1 10 .000654019325188209 .36
965788229481 ??.00979506613674958 .0230012321273601 .0190002 .00870510399946234
 .0234354680849038 .01568119719118235 .00656153039808287 .0241235635600347 .0129
5375207944076 .00384118091721475 .02470314411489405 .011308055653971 .0007024412
72561657 .0249901295766669 .01060653959183638 -.00256782058278987 .0248677762868
858 .0108984025390253 -.00555846021628484 .024374238860403 .01219637324165516 -.
0078877164357727 .0237230674540381 .0143803563865751 -.00934232965590845 .023188
8092967348 .0171833751786138 -.00979506613674958 .0230012321273601 .0190002 41 1
 135 L.00979506613674958 .0230012321273601 .0190002 41 1 136 L-.0097950661367495
8 .0230012321273601 .0190002 38 92 47 0 44 82 73 0 +5 117 137 138 139 40 2 128 0
 1 2 3076620379126215e-20 .0775759089113398 ??-.00992160556806601 -.022400936207
9293 .0195002 -.0097949685992025 -.02300149104255275 .0189998 41 1 129 L-.009921
60556806601 -.0224009362079293 .0195002 41 1 130 L-.0097949685992025 -.023001491
04255275 .0189998 40 10 137 0 1 10 .000654019325188209 .36965788229481 ??-.00979
506613674958 -.0230012321273601 .0190002 -.00870510399946234 -.0234354680849038
 .01568119719118235 -.00656153039808287 -.0241235635600347 .01295375207944076 -.
00384118091721475 -.02470314411489405 .011308055653971 -.000702441272561657 -.02
49901295766669 .01060653959183638 .00256782058278987 -.0248677762868858 .0108984
025390253 .00555846021628484 -.024374238860403 .01219637324165516 .0078877164357
727 -.0237230674540381 .0143803563865751 .00934232965590845 -.0231888092967348 .
0171833751786138 .00979506613674958 -.0230012321273601 .0190002 41 1 138 L-.0097
9506613674958 -.0230012321273601 .0190002 41 1 139 L.00979506613674958 -.0230012
321273601 .0190002 14 123 242 140 ?17 141 142 4 118 +0 0 17 141 26 50 124 252 0
 143 118 144 0 +0 0 -.036 0 0 -1 -1 0 0 14 143 210 145 ?146 147 148 4 124 +0 0 1
46 147 26 51 144 251 0 147 124 18 0 -0 0 -.036 0 0 1 .012 1 0 0 14 147 204 149 ?
143 66 150 4 144 -0 0 143 66 26 52 18 250 0 146 144 5 0 +0 0 -.0355 0 0 1 .012 .
707106781186548 .707106781186548 1 0 0 14 146 215 151 ?141 143 152 4 18 +0 0 141
 143 26 81 1 151 362 84 146 153 0 145 154 155 14 141 231 154 ?123 146 156 4 121
 +0 0 123 146 26 15 152 219 0 157 146 158 13 26 249 0 0 0 0 0 0 8 15 14 15 221 1
59 ?160 0 161 4 117 +0 0 160 0 26 81 1 159 355 84 15 162 0 0 163 164 14 160 179
 163 ?75 15 102 4 93 -75 75 75 15 26 15 161 172 0 165 15 40 17 165 0 161 165 165
 0 166 167 0 0 +15 40 173 0 50 15 0 17 50 0 40 42 41 46 80 29 0 168 -17 42 0 40
 38 50 39 168 78 0 43 +17 41 0 40 50 38 51 45 68 0 80 +17 80 0 69 28 89 51 50 29
 0 0 +17 168 0 32 34 33 46 42 78 0 89 -15 32 193 0 34 116 0 17 34 0 32 30 168 57
 89 72 0 35 -17 33 0 32 168 30 39 104 97 0 42 -16 78 114 169 ?42 67 68 170 68 68
 1 17 89 0 69 80 103 46 34 72 0 0 +17 103 0 69 89 104 57 37 83 0 0 -81 1 169 381
 84 78 171 0 77 172 173 16 68 112 172 ?41 78 167 170 78 78 1 31 170 263 0 68 174
 79 0 +0 0 .019 0 0 -1 -1 0 0 .025 31 174 264 0 167 0 170 0 -0 0 5e-4 0 0 -1 -1
 0 0 .025 31 79 262 0 67 170 175 0 -0 0 .0195 0 0 -1 -1 0 0 .0245 31 175 261 0 1
76 79 177 0 +0 0 0 0 0 -1 -1 0 0 .0245 16 176 152 178 ?179 180 36 175 0 0 1 31 1
77 260 0 180 175 115 0 -0 0 0 0 0 -1 1 1224646799147352e-31 0 .012 16 180 148 18
1 ?182 110 176 177 0 0 1 31 115 259 0 110 177 111 0 -0 0 -.0355 0 0 -1 -1 0 0 .0
12 16 110 135 183 ?184 105 180 115 0 0 1 81 1 183 376 84 110 185 0 107 181 186 1
7 184 0 150 184 184 0 187 110 0 0 +15 150 208 0 184 147 188 17 187 0 158 187 187
 0 184 110 0 0 -15 158 220 0 187 146 0 15 188 209 0 189 147 0 17 189 0 188 189 1
89 0 182 180 0 0 -17 182 0 156 182 182 0 189 180 0 0 +15 156 235 0 182 141 190 1
5 190 236 0 179 141 0 17 179 0 190 179 179 0 191 176 0 0 +17 191 0 192 191 191 0
 179 176 0 0 -15 192 247 0 191 123 0 80 1 84 0 193 8001 0 0 0 0 3 5 0 0 0 FFFFTF
TFFFFFFF2 81 1 185 317 194 110 0 183 195 196 197 81 1 107 375 84 105 198 0 100 1
83 199 81 1 181 377 84 180 200 0 183 178 201 83 3 186 .596078431372549 .66666666
6666667 .686274509803922 81 1 200 312 194 180 0 181 0 202 203 81 1 178 378 84 17
6 196 0 181 204 205 83 3 201 .596078431372549 .666666666666667 .686274509803922
 81 1 196 318 194 176 0 178 185 206 207 81 1 204 379 84 36 208 0 178 77 209 83 3
 205 .596078431372549 .666666666666667 .686274509803922 16 36 146 204 ?35 176 67
 79 67 67 1 81 1 208 325 194 36 0 204 210 106 211 81 1 77 380 84 67 195 0 204 16
9 212 83 3 209 .596078431372549 .666666666666667 .686274509803922 81 1 195 316 1
94 67 0 77 198 185 213 83 3 212 .596078431372549 .666666666666667 .6862745098039
22 80 1 194 214 215 9000 1 1 1 1 1 1 1 1 0 FFFFTFTFFFFFFF3 81 1 198 315 194 105
 0 107 216 195 217 84 32 213 a8841789718d1e38a37f54a0477e287181 1 216 314 194 68
 0 172 202 198 218 84 32 217 544fdcf28f560ed47f96de7865779a0f81 1 172 382 84 68
 216 0 169 219 220 81 1 202 313 194 167 0 219 200 216 221 84 32 218 7a78d36fc507
b58709f715b35ece41d816 167 108 219 ?165 68 0 174 0 0 1 81 1 219 383 84 167 202 0
 172 0 222 84 32 221 281831e5bb47ebafe074411b2d432c2283 3 222 .596078431372549 .
666666666666667 .686274509803922 83 3 220 .596078431372549 .666666666666667 .686
274509803922 79 15 215 UGS/ObjectState81 1 210 324 194 44 0 99 223 208 224 81 1
 106 326 194 97 0 100 208 171 225 84 32 211 265d63f026b0431c5cc31d5c1fcb2d8781 1
 171 327 194 78 0 169 106 85 226 84 32 225 65086ec8e087407481d51af5b11502a281 1
 85 328 194 76 0 81 171 227 228 84 32 226 3f0d2ac38988cfe8ccfeed614110908e81 1 2
27 329 194 143 0 229 85 230 231 84 32 228 2c461ec96a4e7cac7db2a7464f3f4f8a81 3 2
29 342 232 143 227 145 0 233 234 235 0 81 1 230 330 194 17 0 233 227 236 237 84
 32 231 cde96ec110e1bd8db9acbe81d780508714 17 11 238 ?0 123 69 4 5 -0 0 0 123 26
 81 3 233 343 232 17 230 238 229 239 240 241 0 81 1 236 331 194 147 0 239 230 24
2 243 84 32 237 fb7413b26ac73babd8173f0da52d572881 3 239 344 232 147 236 149 233
 162 244 245 0 81 1 242 332 194 15 0 162 236 246 247 84 32 243 ba609543f1d26baf7
737aee1faf173c281 3 162 345 232 15 242 159 239 248 249 250 0 81 1 246 333 194 14
1 0 251 242 252 253 84 32 247 e77a7700ecd1420e5b00af5b106825c581 3 251 348 232 1
41 246 154 254 153 255 256 0 81 1 252 334 194 75 0 248 246 257 258 84 32 253 328
c51f3d16590caddd40d7cd968ea2e14 75 226 259 ?116 160 74 4 93 -160 160 116 160 26
 81 3 248 346 232 75 252 259 162 254 260 261 0 81 1 257 335 194 146 0 153 252 26
2 263 84 32 258 6475ea1e12b8ee90facf4c8a65d6641181 3 153 349 232 146 257 151 251
 264 265 266 0 81 1 262 336 194 123 0 264 257 267 268 84 32 263 95d19f57a458da94
158d2fc80ee580dc81 3 264 350 232 123 262 140 153 269 270 271 0 81 1 267 337 194
 66 0 269 262 272 273 84 32 268 a3fa425b12c0526543dab6b857af166b14 66 237 274 ?1
47 116 61 4 21 +116 116 147 116 26 81 3 269 351 232 66 267 274 264 275 276 277 0
 81 1 272 338 194 116 0 275 267 278 279 84 32 273 a19e060bcf09503a7c38ec52a280e1
af81 3 275 352 232 116 272 120 269 0 280 281 0 81 1 278 339 194 160 0 254 272 0
 282 84 32 279 28ea5abf7a33709a4a119675474f3b5181 3 254 347 232 160 278 163 248
 251 283 284 0 84 32 282 334a6c087d23df7c4f071d59bdf9d4d580 3 232 285 286 9000 0
 0 0 0 3 6 0 0 0 FFFFTFTTFFFFFF1 1 3 81 1 163 356 84 160 254 0 159 259 287 82 1
 283 0 82 1 284 117 81 1 259 357 84 75 248 0 163 120 288 83 3 287 .5960784313725
49 .666666666666667 .686274509803922 81 1 120 358 84 116 275 0 259 274 289 83 3
 288 .596078431372549 .666666666666667 .686274509803922 81 1 274 359 84 66 269 0
 120 149 290 83 3 289 .596078431372549 .666666666666667 .686274509803922 81 1 14
9 360 84 147 239 0 274 145 291 83 3 290 .596078431372549 .666666666666667 .68627
4509803922 81 1 145 361 84 143 229 0 149 151 292 83 3 291 .596078431372549 .6666
66666666667 .686274509803922 83 3 292 .596078431372549 .666666666666667 .6862745
09803922 79 27 286 MONIKER/MONIKER_DATA_ATTRIB82 1 280 0 82 1 281 124 82 1 276 0
 82 1 277 124 81 1 140 364 84 123 264 0 154 238 293 82 1 270 0 82 1 271 123 81 1
 154 363 84 141 251 0 151 140 294 81 1 238 365 84 17 233 0 140 27 295 83 3 293 .
596078431372549 .666666666666667 .686274509803922 81 1 27 367 84 9 223 0 238 86
 296 83 3 295 .596078431372549 .666666666666667 .686274509803922 81 1 223 323 19
4 9 0 27 297 210 298 81 1 86 368 84 29 206 0 27 81 299 83 3 296 .596078431372549
 .666666666666667 .686274509803922 81 1 206 319 194 29 0 86 196 98 300 83 3 299
 .596078431372549 .666666666666667 .686274509803922 81 1 98 320 194 83 0 96 206
 301 302 84 32 300 61163693c9c1cfc8c06db3849b63138d81 1 301 321 194 72 0 87 98 2
97 303 84 32 302 ca70838bbf7c3949bf74f31582f7944a81 1 87 370 84 72 301 0 81 71 3
04 81 1 297 322 194 64 0 71 301 223 305 84 32 303 8859c9afa3c6600d8c11d05d7b538a
ae81 1 71 371 84 64 297 0 87 99 306 84 32 305 1bf274590be78966b525ee486cef398581
 1 99 372 84 44 210 0 71 96 307 83 3 306 .596078431372549 .666666666666667 .6862
74509803922 83 3 307 .596078431372549 .666666666666667 .686274509803922 83 3 304
 .596078431372549 .666666666666667 .686274509803922 84 32 298 61c44ffa5443f2f3db
f60a9570c8c75c83 3 294 .596078431372549 .666666666666667 .686274509803922 82 1 2
65 0 82 1 266 122 82 1 260 0 82 1 261 117 50 93 257 0 160 0 121 308 +0 0 .0195 0
 0 -1 -1 0 0 50 121 256 0 141 93 117 0 +0 0 0 0 0 -1 -1 0 0 141 308 82 308 308 9
3 82 1 255 0 82 1 256 118 82 1 249 0 82 1 250 116 82 1 244 0 82 1 245 110 82 1 2
40 0 82 1 241 69 82 1 234 0 82 1 235 24 84 32 224 73889a7c086071a3aefe82b74da7ab
3e17 35 0 102 37 37 57 30 36 0 103 +15 102 183 0 35 160 0 84 32 207 1adf17a649a0
e9abd709ca4b6d8e016584 32 203 7fc3bf16fec4df22046b8b07d9450e2183 3 199 .59607843
1372549 .666666666666667 .686274509803922 84 32 197 55df4d0b4a7764f5c69ac5010cef
71ff79 15 193 SDL/TYSA_COLOUR83 3 173 .596078431372549 .666666666666667 .6862745
09803922 17 43 0 69 104 63 39 38 44 0 0 +17 166 0 142 166 166 0 165 167 0 0 -15
 142 246 0 166 123 192 83 3 164 .596078431372549 .666666666666667 .6862745098039
22 17 157 0 152 157 157 0 109 105 0 0 -17 109 0 148 109 109 0 157 105 0 0 +15 14
8 214 0 109 143 0 83 3 155 .596078431372549 .666666666666667 .686274509803922 14
1 122 92 309 309 117 141 309 20 122 122 117 83 3 108 .596078431372549 .666666666
666667 .686274509803922 83 3 101 .596078431372549 .666666666666667 .686274509803
922 40 26 94 0 1 26 .00251195688162045 .3852041662348735 ??-.00759934207678533 0
 .0195 -.00995235098976991 .01858622249377105 .0195 -.00933893419727915 .0259965
4522010025 .0195 -.00766181813335474 .0300646511169306 .0195 -.0053453485639864
 .03279908153254875 .0195 -.00282684913688245 .0342958875081506 .0195 6745764269
34191e-19 .03482426628685515 .0195 .002679131023987305 .03435087209051435 .0195
 .00499553767502208 .0330785825185367 .0195 .00703740878135121 .0309926538744443
 .0195 .00904247132758531 .02701648330794995 .0195 .0099997710682418 .0204326000
39498 .0195 .00812264186429399 .00620240991492695 .0195 .00845882286081532 -.008
23647846523176 .0195 .00995299168522218 -.0219426904698933 .0195 .00836796742183
874 -.02873998409932545 .0195 .00640487616122567 -.03176956892704795 .0195 .0035
25340928594545 -.03399089952848535 .0195 .00094229006768055 -.0347670457942651 .
0195 -.00175560865936256 -.0346236312840101 .0195 -.004172585728632505 -.0336376
425340374 .0195 -.00632047517870783 -.03186302459257615 .0195 -.0084966362790078
6 -.02845495939702555 .0195 -.00988164891084118 -.02285781689438635 .0195 -.0090
3631517391025 -.01145763926877794 .0195 -.00759934207678554 359394582323091e-31
 .0195 41 1 95 H-.00759934207678554 359394582323091e-31 .0195 83 3 88 .596078431
372549 .666666666666667 .686274509803922 17 53 0 61 45 62 51 28 9 0 41 -19 16 1
 0 1 0 8 4 S40 2 22 0 1 2 3076620379126125e-20 .0775759089113398 ??-.00979496859
92025 .02300149104255275 .0189998 -.00992160556806601 .02240093620792935 .019500
2 41 1 23 L-.0097949685992025 .02300149104255275 .0189998 41 1 24 L-.00992160556
806601 .02240093620792935 .0195002 141 19 91 310 311 5 141 310 6 312 19 5 141 31
1 82 19 313 5 141 313 92 311 314 5 141 314 73 313 315 5 141 315 90 314 312 5 141
 312 20 315 310 5 74 20 14 8 0 316 278 317 275 318 12 219 2 0 0 0 0 0 0 0 0 0 0
 0 0 81 2 316 311 319 1 0 317 0 0 320 321 81 1 317 341 322 1 316 318 0 0 323 81
 3 318 353 324 1 317 12 0 0 325 326 327 81 2 12 354 328 1 318 2 0 0 329 0 80 2 3
28 324 330 9000 2 2 2 2 3 6 0 0 0 FFTFFFFFFFFFFF2 3 83 1 329 9530 79 22 330 MONI
KER/BODY_ID_ATTRIB80 3 324 232 331 9000 0 0 0 0 3 6 0 0 0 FFTFFFFFFFFFFF3 3 1 84
 38 325 {e5f0e194-e194-4124-84f4-e41adb2875ab}84 21 326 NX 2406.7001-Eleandro82
 1 327 0 79 25 331 MONIKER/GUID_TABLE_ATTRIB80 1 322 332 333 9000 0 0 0 0 3 5 0
 0 0 FFTFFFFFFFFFFF1 82 1 323 -1 79 19 333 UG2/PMARK_ATTRIBUTE80 2 319 334 335 8
004 0 0 0 0 3 5 0 0 0 FFTFFFFFFFFFFF2 3 83 1 320 7830.64 84 8 321 Kg/Cu M 79 16
 335 SDL/TYSA_DENSITY80 1 11 84 336 8040 0 0 0 0 3 5 0 0 0 TTTFFFFFFFFFFF2 83 3
 13 .596078431372549 .666666666666667 .686274509803922 79 17 336 SDL/TYSA_COLOUR
_21 0 
