**ABCDEFGHIJKLMNOPQRSTUVWXYZabcdefghijklmnopqrstuvwxyz**************************
**PARASOLID !"#$%&'()*+,-./:;<=>?@[\]^_`{|}~0123456789**************************
**PART1;
MC=^_;
MC_MODEL=genuineintel family 6 model 14 stepping 4, intel(r) xeon(r) cpu e5-2620 v2 @ 2.10ghz;
MC_ID=^_;
OS=windows nt (x64);
OS_RELEASE=6.3 windows 10 pro (build 19045) ;
FRU=mdc_ugii_v7.0_djl_can_vrh;
APPL=unigraphics;
SITE=unknown;
USER=^_;
FORMAT=text;
GUISE=transmit;
KEY=olhal_M8;
FILE=^_;
DATE=7-apr-2025;
**PART2;
SCH=SCH_3601193_36001;
USFLD_SIZE=0;
**PART3;
**END_OF_HEADER*****************************************************************
T51 : TRANSMIT FILE created by modeller version 360119317 SCH_1400000_140000 12
 1 383 2 3 0 0 0 0 1e3 1e-8 0 0 0 1 0 1 1 4 5 6 7 8 9 10 81 1 2 366 11 1 12 0 0
 0 13 70 3 0 4 T1 0 0 8 20 1 14 14 13 4 107 0 1 0 15 0 0 16 0 54 5 14 0 17 18 0
 19 -0 79602041944578e-32 .019 1 0 0 .014 .004 0 0 -1 38 6 65 0 9 20 0 0 +5 21 2
2 23 24 29 7 38 0 10 25 0 .00398238308052115 -.00862499999997811 .00750000000001
877 19 8 248 0 1 16 0 26 V16 9 63 27 ?28 0 29 6 0 0 1 18 10 36 0 30 0 31 7 ?1 17
 30 0 32 33 34 10 35 36 0 37 -18 31 161 0 38 10 39 25 ?1 17 38 0 40 41 42 31 43
 44 0 45 -18 39 165 0 33 31 46 47 ?1 29 25 265 0 31 47 7 -.003833259389999635 -.
00923613135728264 .007 29 47 266 0 39 48 25 .00383325939001014 -.009236131357278
28 .007 29 48 267 0 46 49 47 .003833259389999635 .00923613135728264 .007 18 46 1
60 0 50 39 51 48 ?1 29 49 268 0 51 52 48 -.00383325939001014 .00923613135727828
 .007 18 51 162 0 53 46 54 49 ?1 29 52 269 0 54 55 49 -.003982383080529015 .0086
2499999999514 .0075 18 54 163 0 56 51 57 52 ?1 29 55 270 0 57 58 52 .00398238308
0518485 .008625 .0075 18 57 167 0 34 54 59 55 ?1 29 58 272 0 59 0 55 -.003982383
080518485 -.008625 .0075 18 59 166 0 60 57 0 58 ?1 17 60 0 61 62 45 59 63 64 0 6
5 -15 61 198 0 60 66 0 17 62 0 61 53 60 54 65 67 0 28 -17 45 0 61 60 53 31 41 68
 0 63 -17 63 0 69 43 70 31 60 64 0 0 +16 64 49 71 ?63 72 44 73 0 0 1 17 65 0 74
 56 56 59 62 67 0 70 +15 74 183 0 65 75 0 17 56 0 74 65 65 54 70 76 0 62 +16 67
 119 77 ?65 36 78 79 36 36 1 17 70 0 69 63 28 59 56 76 0 0 -15 69 34 0 80 17 0 1
7 28 0 69 70 80 54 53 9 0 0 +16 76 57 81 ?56 29 72 82 83 83 1 81 1 81 369 84 76
 85 0 86 87 88 16 29 60 86 ?80 9 76 20 0 0 1 16 72 53 87 ?89 76 64 90 0 0 1 38 8
2 43 0 83 91 92 0 +5 93 94 95 95 16 83 41 96 ?37 44 97 82 76 76 1 81 1 96 373 84
 83 98 0 99 100 101 17 37 0 102 35 35 10 103 83 0 104 +16 44 45 99 ?43 64 83 92
 0 0 1 16 97 37 100 ?104 83 105 91 0 0 1 81 1 100 374 84 97 106 0 96 107 108 17
 104 0 69 103 43 10 33 97 0 0 +16 105 137 107 ?109 97 110 111 0 0 1 38 91 39 0 9
7 111 82 0 +5 21 112 113 114 31 111 258 0 105 115 91 0 +0 0 -.013 0 0 -1 -1 0 0
 .0035 52 21 254 0 116 117 118 119 +0 0 .007 0 0 -1 .01 .707106781186548 .707106
781186548 -1 0 0 40 2 112 0 1 2 784814353311393e-19 .194613011410688 ??.00383316
5673221755 -.0092363867914696 .0069998 .00398241131826672 -.00862476667117092 .0
075002 41 1 113 L.003833165673221755 -.0092363867914696 .0069998 41 1 114 L.0039
8241131826672 -.00862476667117092 .0075002 14 116 189 120 ?66 121 32 4 21 +66 66
 66 121 26 51 117 255 0 15 122 21 123 +0 0 .0075 0 0 -1 .01 -1 0 0 52 118 253 0
 124 21 125 0 +0 0 0 0 0 1 .0095 .707106781186548 .707106781186548 1 0 0 141 119
 91 126 127 21 141 126 6 128 119 21 141 127 73 119 128 21 38 73 51 0 64 92 90 0
 +5 21 129 130 131 141 128 90 127 126 21 38 90 55 0 72 73 20 0 +5 21 132 133 134
 38 20 62 0 29 90 6 0 +5 117 135 136 137 40 2 132 0 1 2 784814353311376e-19 .194
613011410688 ??.00398241131826672 .00862476667117092 .0075002 .00383316567322175
5 .0092363867914696 .0069998 41 1 133 L.00398241131826672 .00862476667117092 .00
75002 41 1 134 L.003833165673221755 .0092363867914696 .0069998 40 9 135 0 1 9 .0
00240764097646169 .356415974725467 ??.003833310495525055 .00923611014685823 .007
0002 .003307349373394775 .00943723689022932 .00577149271987768 .0023998815420654
45 .00970775816468734 .004801320923385 .001270626133809012 .00991894698181624 .0
0422843763261156 -951647763996498e-20 .00999999547183164 .004033381042204685 -.0
01307277213690276 .0099141830872022 .004240266718522495 -.002456917754758405 .00
969348003280313 .00484435522615566 -.00331471118179524 .00943465366514753 .00578
299188086389 -.003833310495525055 .00923611014685822 .0070002 41 1 136 L.0038333
10495525055 .00923611014685823 .0070002 41 1 137 L-.003833310495525055 .00923611
014685822 .0070002 38 92 47 0 44 82 73 0 +5 117 138 139 140 40 2 129 0 1 2 78481
4353311376e-19 .194613011410688 ??-.00398241131826672 -.00862476667117092 .00750
02 -.003833165673221755 -.0092363867914696 .0069998 41 1 130 L-.0039824113182667
2 -.00862476667117092 .0075002 41 1 131 L-.003833165673221755 -.0092363867914696
 .0069998 40 9 138 0 1 9 .000240764097646169 .356415974725467 ??-.00383331049552
5055 -.00923611014685823 .0070002 -.003307349373394775 -.00943723689022932 .0057
7149271987768 -.002399881542065445 -.00970775816468734 .004801320923385 -.001270
626133809012 -.00991894698181624 .00422843763261156 951647763996498e-20 -.009999
99547183164 .004033381042204685 .001307277213690276 -.0099141830872022 .00424026
6718522495 .002456917754758405 -.00969348003280313 .00484435522615566 .003314711
18179524 -.00943465366514753 .00578299188086389 .003833310495525055 -.0092361101
4685822 .0070002 41 1 139 L-.003833310495525055 -.00923611014685823 .0070002 41
 1 140 L.003833310495525055 -.00923611014685822 .0070002 14 124 242 141 ?17 142
 143 4 118 +0 0 17 142 26 50 125 252 0 144 118 145 0 +0 0 -.013 0 0 -1 -1 0 0 14
 144 210 146 ?147 148 149 4 125 +0 0 147 148 26 51 145 251 0 148 125 18 0 -0 0 -
.013 0 0 1 .004 1 0 0 14 148 204 150 ?144 66 151 4 145 -0 0 144 66 26 52 18 250
 0 147 145 5 0 +0 0 -.0125 0 0 1 .004 .707106781186547 .707106781186548 1 0 0 14
 147 215 152 ?142 144 153 4 18 +0 0 142 144 26 81 1 152 362 84 147 154 0 146 155
 156 14 142 231 155 ?124 147 157 4 122 +0 0 124 147 26 15 153 219 0 158 147 159
 13 26 249 0 0 0 0 0 0 8 15 14 15 221 160 ?75 0 161 4 117 +0 0 75 0 26 81 1 160
 355 84 15 162 0 0 163 164 14 75 179 163 ?121 15 74 4 93 -121 121 121 15 26 15 1
61 172 0 165 15 40 17 165 0 161 165 165 0 166 167 0 0 +15 40 173 0 50 15 0 17 50
 0 40 42 41 46 80 29 0 168 -17 42 0 40 38 50 39 168 78 0 43 +17 41 0 40 50 38 51
 45 68 0 80 +17 80 0 69 28 89 51 50 29 0 0 +17 168 0 32 34 33 46 42 78 0 89 -15
 32 193 0 34 116 0 17 34 0 32 30 168 57 89 72 0 35 -17 33 0 32 168 30 39 104 97
 0 42 -16 78 114 169 ?42 67 68 170 68 68 1 17 89 0 69 80 103 46 34 72 0 0 +17 10
3 0 69 89 104 57 37 83 0 0 -81 1 169 381 84 78 171 0 77 172 173 16 68 112 172 ?4
1 78 167 170 78 78 1 31 170 263 0 68 174 79 0 +0 0 .007 0 0 -1 -1 0 0 .01 31 174
 264 0 167 0 170 0 -0 0 5e-4 0 0 -1 -1 0 0 .01 31 79 262 0 67 170 175 0 -0 0 .00
75 0 0 -1 -1 0 0 .0095 31 175 261 0 176 79 177 0 +0 0 0 0 0 -1 -1 0 0 .0095 16 1
76 152 178 ?179 180 36 175 0 0 1 31 177 260 0 180 175 115 0 -0 0 0 0 0 -1 1 1224
646799147352e-31 0 .004 16 180 148 181 ?182 110 176 177 0 0 1 31 115 259 0 110 1
77 111 0 -0 0 -.0125 0 0 -1 -1 0 0 .004 16 110 135 183 ?184 105 180 115 0 0 1 81
 1 183 376 84 110 185 0 107 181 186 17 184 0 151 184 184 0 187 110 0 0 +15 151 2
08 0 184 148 188 17 187 0 159 187 187 0 184 110 0 0 -15 159 220 0 187 147 0 15 1
88 209 0 189 148 0 17 189 0 188 189 189 0 182 180 0 0 -17 182 0 157 182 182 0 18
9 180 0 0 +15 157 235 0 182 142 190 15 190 236 0 179 142 0 17 179 0 190 179 179
 0 191 176 0 0 +17 191 0 192 191 191 0 179 176 0 0 -15 192 247 0 191 124 0 80 1
 84 0 193 8001 0 0 0 0 3 5 0 0 0 FFFFTFTFFFFFFF2 81 1 185 317 194 110 0 183 195
 196 197 81 1 107 375 84 105 198 0 100 183 199 81 1 181 377 84 180 200 0 183 178
 201 83 3 186 .596078431372549 .666666666666667 .686274509803922 81 1 200 312 19
4 180 0 181 0 202 203 81 1 178 378 84 176 196 0 181 204 205 83 3 201 .5960784313
72549 .666666666666667 .686274509803922 81 1 196 318 194 176 0 178 185 206 207 8
1 1 204 379 84 36 208 0 178 77 209 83 3 205 .596078431372549 .666666666666667 .6
86274509803922 16 36 144 204 ?35 176 67 79 67 67 1 81 1 208 325 194 36 0 204 210
 106 211 81 1 77 380 84 67 195 0 204 169 212 83 3 209 .596078431372549 .66666666
6666667 .686274509803922 81 1 195 316 194 67 0 77 198 185 213 83 3 212 .59607843
1372549 .666666666666667 .686274509803922 80 1 194 214 215 9000 1 1 1 1 1 1 1 1
 0 FFFFTFTFFFFFFF3 81 1 198 315 194 105 0 107 216 195 217 84 32 213 081ceae3a1d0
5f8bec3128f746b3df5881 1 216 314 194 68 0 172 202 198 218 84 32 217 cda8799958a6
85f1a5857830d67d7b2981 1 172 382 84 68 216 0 169 219 220 81 1 202 313 194 167 0
 219 200 216 221 84 32 218 4a54146ae8343bfcccc1813a1d1e9e3b16 167 108 219 ?165 6
8 0 174 0 0 1 81 1 219 383 84 167 202 0 172 0 222 84 32 221 6b845233dcaa1efa8b40
e93653a3f03b83 3 222 .596078431372549 .666666666666667 .686274509803922 83 3 220
 .596078431372549 .666666666666667 .686274509803922 79 15 215 UGS/ObjectState81
 1 210 324 194 44 0 99 223 208 224 81 1 106 326 194 97 0 100 208 171 225 84 32 2
11 7c6f236e313467f63b771f88f038916881 1 171 327 194 78 0 169 106 85 226 84 32 22
5 a10bec7a8594d9fe62fe5f6a1bc9fbb881 1 85 328 194 76 0 81 171 227 228 84 32 226
 42d02106e8f497d3c9cff0bde157a37a81 1 227 329 194 144 0 229 85 230 231 84 32 228
 8c019d0338c97cba00e4c38bf8e2f85681 3 229 342 232 144 227 146 0 233 234 235 0 81
 1 230 330 194 17 0 233 227 236 237 84 32 231 d9f2288eb234659e97485b695873492214
 17 11 238 ?0 124 69 4 5 -0 0 0 124 26 81 3 233 343 232 17 230 238 229 239 240 2
41 0 81 1 236 331 194 148 0 239 230 242 243 84 32 237 4ec735cccda7d148aa3d67a870
7d76cc81 3 239 344 232 148 236 150 233 162 244 245 0 81 1 242 332 194 15 0 162 2
36 246 247 84 32 243 f6a84b946d8fc1855f56dffe605d021981 3 162 345 232 15 242 160
 239 248 249 250 0 81 1 246 333 194 142 0 251 242 252 253 84 32 247 07f07e9c82ba
e9eb8f373926e1c1fcd981 3 251 348 232 142 246 155 254 154 255 256 0 81 1 252 334
 194 75 0 254 246 257 258 84 32 253 ddb44032ad80c8dbed158202b4c111dc81 3 254 347
 232 75 252 163 248 251 259 260 0 81 1 257 335 194 147 0 154 252 261 262 84 32 2
58 a10ef40702e6d4ba84a385bbcbad036f81 3 154 349 232 147 257 152 251 263 264 265
 0 81 1 261 336 194 124 0 263 257 266 267 84 32 262 27384aa5faf51227666123bbf892
24f081 3 263 350 232 124 261 141 154 268 269 270 0 81 1 266 337 194 66 0 268 261
 271 272 84 32 267 2f70b496268f35e7ae676b7dc1c88a6a14 66 237 273 ?148 116 61 4 2
1 +116 116 148 116 26 81 3 268 351 232 66 266 273 263 274 275 276 0 81 1 271 338
 194 116 0 274 266 277 278 84 32 272 8a83c428f9d93cafe7f1d44ddf82a6b381 3 274 35
2 232 116 271 120 268 0 279 280 0 81 1 277 339 194 121 0 248 271 0 281 84 32 278
 e195fd6f9577844e66d851ff6b1dda4414 121 226 282 ?116 75 102 4 93 -75 75 116 75 2
6 81 3 248 346 232 121 277 282 162 254 283 284 0 84 32 281 f34a41286679ef6631b6c
5beecde5ccb80 3 232 285 286 9000 0 0 0 0 3 6 0 0 0 FFFFTFTTFFFFFF1 1 3 81 1 282
 357 84 121 248 0 163 120 287 82 1 283 0 82 1 284 117 81 1 163 356 84 75 254 0 1
60 282 288 81 1 120 358 84 116 274 0 282 273 289 83 3 287 .596078431372549 .6666
66666666667 .686274509803922 81 1 273 359 84 66 268 0 120 150 290 83 3 289 .5960
78431372549 .666666666666667 .686274509803922 81 1 150 360 84 148 239 0 273 146
 291 83 3 290 .596078431372549 .666666666666667 .686274509803922 81 1 146 361 84
 144 229 0 150 152 292 83 3 291 .596078431372549 .666666666666667 .6862745098039
22 83 3 292 .596078431372549 .666666666666667 .686274509803922 83 3 288 .5960784
31372549 .666666666666667 .686274509803922 79 27 286 MONIKER/MONIKER_DATA_ATTRIB
15 102 188 0 35 121 0 50 93 257 0 75 0 122 293 +0 0 .0075 0 0 -1 -1 0 0 50 122 2
56 0 142 93 117 0 +0 0 0 0 0 -1 -1 0 0 141 293 82 293 293 93 17 35 0 102 37 37 5
7 30 36 0 103 +82 1 279 0 82 1 280 124 82 1 275 0 82 1 276 124 81 1 141 364 84 1
24 263 0 155 238 294 82 1 269 0 82 1 270 123 81 1 155 363 84 142 251 0 152 141 2
95 81 1 238 365 84 17 233 0 141 27 296 83 3 294 .596078431372549 .66666666666666
7 .686274509803922 81 1 27 367 84 9 223 0 238 86 297 83 3 296 .596078431372549 .
666666666666667 .686274509803922 81 1 223 323 194 9 0 27 298 210 299 81 1 86 368
 84 29 206 0 27 81 300 83 3 297 .596078431372549 .666666666666667 .6862745098039
22 81 1 206 319 194 29 0 86 196 98 301 83 3 300 .596078431372549 .66666666666666
7 .686274509803922 81 1 98 320 194 83 0 96 206 302 303 84 32 301 06581fb00e2216f
1f56c968638206fd481 1 302 321 194 72 0 87 98 298 304 84 32 303 318681f24d5a4b43e
a41fe4c68c803f981 1 87 370 84 72 302 0 81 71 305 81 1 298 322 194 64 0 71 302 22
3 306 84 32 304 9b6e30c62010e79670c2069fafe60e3581 1 71 371 84 64 298 0 87 99 30
7 84 32 306 da15a1dd4ca9da63c6b2375e607b3cd081 1 99 372 84 44 210 0 71 96 308 83
 3 307 .596078431372549 .666666666666667 .686274509803922 83 3 308 .596078431372
549 .666666666666667 .686274509803922 83 3 305 .596078431372549 .666666666666667
 .686274509803922 84 32 299 e078fef6c19f4fa6c87449b7c9cbf69683 3 295 .5960784313
72549 .666666666666667 .686274509803922 82 1 264 0 82 1 265 122 82 1 259 0 82 1
 260 117 82 1 255 0 82 1 256 118 82 1 249 0 82 1 250 116 82 1 244 0 82 1 245 110
 82 1 240 0 82 1 241 69 82 1 234 0 82 1 235 24 84 32 224 cc1f8028a3da385de1f26fa
d8f15aa5e84 32 207 85939e1d1b585a4e03bdab078c206d7884 32 203 12cbe92306b26bd353e
08675ea4b0d4f83 3 199 .596078431372549 .666666666666667 .686274509803922 84 32 1
97 3312079a8ea049a69dd7c195c1c5007679 15 193 SDL/TYSA_COLOUR83 3 173 .5960784313
72549 .666666666666667 .686274509803922 17 43 0 69 104 63 39 38 44 0 0 +17 166 0
 143 166 166 0 165 167 0 0 -15 143 246 0 166 124 192 83 3 164 .596078431372549 .
666666666666667 .686274509803922 17 158 0 153 158 158 0 109 105 0 0 -17 109 0 14
9 109 109 0 158 105 0 0 +15 149 214 0 109 144 0 83 3 156 .596078431372549 .66666
6666666667 .686274509803922 141 123 92 309 309 117 141 309 20 123 123 117 83 3 1
08 .596078431372549 .666666666666667 .686274509803922 83 3 101 .596078431372549
 .666666666666667 .686274509803922 40 26 94 0 1 26 .002392018421539695 .39432852
3049638 ??.0031224989991992 -94459175055851e-34 .0075 .00355774781489715 -.00398
7724660110345 .0075 .003997861295596335 -.00775274713479734 .0075 .0036866426133
31375 -.0104696860332979 .0075 .002971864397978275 -.0120781983515051 .0075 .002
038702359978355 -.01311315213149684 .0075 .001030343480231768 -.0136714665767720
6 .0075 -.000113731705578457 -.0138452801991365 .0075 -.001141992974362286 -.013
63027241342844 .0075 -.002055263582885305 -.01310002842838038 .0075 -.0028601165
86652235 -.01224207225476104 .0075 -.003649581495574905 -.01059590844019326 .007
5 -.003999095606807555 -.00783426438860043 .0075 -.00359017195851646 .0041805317
9377572 .0075 -.00393614590209774 .00917545897494877 .0075 -.00356321166580937 .
01086025733153186 .0075 -.00274798704169125 .0123929230136647 .0075 -.0018042842
87755805 .01328356946919546 .0075 -.000599669425796112 .01378856889275746 .0075
 .000523508378329191 .01380262954268438 .0075 .00150429763713455 .01346347313369
69 .0075 .002377785480171865 .01281246600405912 .0075 .0032754598933041 .0115459
0042655696 .0075 .003900828940886225 .00945084199894272 .0075 .00382179419031308
 .00566447047892531 .0075 .0031224989991992 472585006086174e-33 .0075 41 1 95 H.
0031224989991992 472585006086174e-33 .0075 83 3 88 .596078431372549 .66666666666
6667 .686274509803922 17 53 0 61 45 62 51 28 9 0 41 -19 16 1 0 1 0 8 4 S40 2 22
 0 1 2 784814353311393e-19 .194613011410688 ??-.003833165673221755 .009236386791
4696 .0069998 -.00398241131826672 .00862476667117092 .0075002 41 1 23 L-.0038331
65673221755 .0092363867914696 .0069998 41 1 24 L-.00398241131826672 .00862476667
117092 .0075002 141 19 91 310 311 5 141 310 6 312 19 5 141 311 82 19 313 5 141 3
13 92 311 314 5 141 314 73 313 315 5 141 315 90 314 312 5 141 312 20 315 310 5 7
4 20 14 8 0 316 277 317 274 318 12 219 2 0 0 0 0 0 0 0 0 0 0 0 0 81 2 316 311 31
9 1 0 317 0 0 320 321 81 1 317 341 322 1 316 318 0 0 323 81 3 318 353 324 1 317
 12 0 0 325 326 327 81 2 12 354 328 1 318 2 0 0 329 0 80 2 328 324 330 9000 2 2
 2 2 3 6 0 0 0 FFTFFFFFFFFFFF2 3 83 1 329 9530 79 22 330 MONIKER/BODY_ID_ATTRIB8
0 3 324 232 331 9000 0 0 0 0 3 6 0 0 0 FFTFFFFFFFFFFF3 3 1 84 38 325 {10dee265-e
265-43ae-a0c5-571b471b6b86}84 21 326 NX 2406.7001-Eleandro82 1 327 0 79 25 331 M
ONIKER/GUID_TABLE_ATTRIB80 1 322 332 333 9000 0 0 0 0 3 5 0 0 0 FFTFFFFFFFFFFF1
 82 1 323 -1 79 19 333 UG2/PMARK_ATTRIBUTE80 2 319 334 335 8004 0 0 0 0 3 5 0 0
 0 FFTFFFFFFFFFFF2 3 83 1 320 7830.64 84 8 321 Kg/Cu M 79 16 335 SDL/TYSA_DENSIT
Y80 1 11 84 336 8040 0 0 0 0 3 5 0 0 0 TTTFFFFFFFFFFF2 83 3 13 .596078431372549
 .666666666666667 .686274509803922 79 17 336 SDL/TYSA_COLOUR_21 0 
