**ABCDEFGHIJKLMNOPQRSTUVWXYZabcdefghijklmnopqrstuvwxyz**************************
**PARASOLID !"#$%&'()*+,-./:;<=>?@[\]^_`{|}~0123456789**************************
**PART1;
MC=^_;
MC_MODEL=genuineintel family 6 model 14 stepping 4, intel(r) xeon(r) cpu e5-2620 v2 @ 2.10ghz;
MC_ID=^_;
OS=windows nt (x64);
OS_RELEASE=6.3 windows 10 pro (build 19045) ;
FRU=mdc_ugii_v7.0_djl_can_vrh;
APPL=unigraphics;
SITE=unknown;
USER=^_;
FORMAT=text;
GUISE=transmit;
KEY=olhal_M36;
FILE=^_;
DATE=7-apr-2025;
**PART2;
SCH=SCH_3601193_36001;
USFLD_SIZE=0;
**PART3;
**END_OF_HEADER*****************************************************************
T51 : TRANSMIT FILE created by modeller version 360119317 SCH_1400000_140000 12
 1 383 2 3 0 0 0 0 1e3 1e-8 0 0 0 1 0 1 1 4 5 6 7 8 9 10 81 1 2 366 11 1 12 0 0
 0 13 70 3 0 4 T1 0 0 8 20 1 14 14 13 4 107 0 1 0 15 0 0 16 0 54 5 14 0 17 18 0
 19 -0 0 .069 1 0 0 .049 .014 0 0 -1 38 6 65 0 9 20 0 0 +5 21 22 23 24 29 7 38 0
 10 25 0 .01306003238142928 -.0346184279567304 .02750000000000925 19 8 248 0 1 1
6 0 26 V16 9 63 27 ?28 0 29 6 0 0 1 18 10 36 0 30 0 31 7 ?1 17 30 0 32 33 34 10
 35 36 0 37 -18 31 161 0 38 10 39 25 ?1 17 38 0 40 41 42 31 43 44 0 45 -18 39 16
5 0 33 31 46 47 ?1 29 25 265 0 31 47 7 -.01271941308109172 -.03527699719183245 .
027 29 47 266 0 39 48 25 .01271941308110072 -.0352769971918292 .027 29 48 267 0
 46 49 47 .01271941308109172 .03527699719183245 .027 18 46 160 0 50 39 51 48 ?1
 29 49 268 0 51 52 48 -.01271941308110072 .0352769971918292 .027 18 51 162 0 53
 46 54 49 ?1 29 52 269 0 54 55 49 -.01306003238143254 .03461842795673905 .0275 1
8 54 164 0 56 51 57 52 ?1 29 55 270 0 57 58 52 .01306003238142356 .0346184279567
4245 .0275 18 57 166 0 34 54 59 55 ?1 29 58 272 0 59 0 55 -.01306003238142356 -.
03461842795674245 .0275 18 59 167 0 60 57 0 58 ?1 17 60 0 61 62 45 59 63 64 0 65
 -15 61 198 0 60 66 0 17 62 0 61 53 60 54 65 67 0 28 -17 45 0 61 60 53 31 41 68
 0 63 -17 63 0 69 43 70 31 60 64 0 0 +16 64 49 71 ?63 72 44 73 0 0 1 17 65 0 74
 56 56 59 62 67 0 70 +15 74 188 0 65 75 0 17 56 0 74 65 65 54 70 76 0 62 +16 67
 124 77 ?65 36 78 79 36 36 1 17 70 0 69 63 28 59 56 76 0 0 -15 69 34 0 80 17 0 1
7 28 0 69 70 80 54 53 9 0 0 +16 76 57 81 ?56 29 72 82 83 83 1 81 1 81 369 84 76
 85 0 86 87 88 16 29 60 86 ?80 9 76 20 0 0 1 16 72 53 87 ?89 76 64 90 0 0 1 38 8
2 43 0 83 91 92 0 +5 93 94 95 95 16 83 41 96 ?37 44 97 82 76 76 1 81 1 96 373 84
 83 98 0 99 100 101 17 37 0 102 35 35 10 103 83 0 104 +16 44 45 99 ?43 64 83 92
 0 0 1 16 97 37 100 ?104 83 105 91 0 0 1 81 1 100 374 84 97 106 0 96 107 108 17
 104 0 69 103 43 10 33 97 0 0 +16 105 137 107 ?109 97 110 111 0 0 1 38 91 39 0 9
7 111 82 0 +5 21 112 113 114 31 111 258 0 105 115 91 0 +0 0 -.054 0 0 -1 -1 0 0
 .0175 52 21 254 0 116 117 118 119 +0 0 .027 0 0 -1 .0375 .707106781186548 .7071
06781186548 -1 0 0 40 2 112 0 1 2 276132459788152e-19 .0616893943193118 ??.01271
926384713764 -.0352772636017435 .0269998 .01306015610799028 -.03461816752046425
 .0275002 41 1 113 L.01271926384713764 -.0352772636017435 .0269998 41 1 114 L.01
306015610799028 -.03461816752046425 .0275002 14 116 189 120 ?66 75 32 4 21 +66 6
6 66 75 26 51 117 255 0 15 121 21 122 +0 0 .0275 0 0 -1 .0375 -1 0 0 52 118 253
 0 123 21 124 0 +0 0 0 0 0 1 .037 .707106781186548 .707106781186548 1 0 0 141 11
9 91 125 126 21 141 125 6 127 119 21 141 126 73 119 127 21 38 73 51 0 64 92 90 0
 +5 21 128 129 130 141 127 90 126 125 21 38 90 55 0 72 73 20 0 +5 21 131 132 133
 38 20 62 0 29 90 6 0 +5 117 134 135 136 40 2 131 0 1 2 2761324597861805e-20 .06
1689394319312 ??.0130601561079902 .03461816752046425 .0275002 .01271926384713774
 .0352772636017435 .0269998 41 1 132 L.0130601561079902 .03461816752046425 .0275
002 41 1 133 L.01271926384713774 .0352772636017435 .0269998 40 9 134 0 1 9 .0008
25395629143107 .3531642710384535 ??.01271949191723644 .0352769687667089 .0270002
 .0103644591596714 .0360392561844373 .0230316890483998 .00679518727894194 .03687
9200504405 .02010929183827855 .002604344698926035 .0374094558726691 .01861347547
2482 -.001890877148320265 .037452297441011 .0185007084560593 -.00620402246062138
 .0369832408708067 .0197995966106659 -.00979547719319491 .03619804727547605 .022
40613515521995 -.0122973113725781 .03542634800548685 .02602888513633855 -.012719
49191723642 .03527696876670895 .0270002 41 1 135 L.01271949191723644 .0352769687
667089 .0270002 41 1 136 L-.01271949191723642 .03527696876670895 .0270002 38 92
 47 0 44 82 73 0 +5 117 137 138 139 40 2 128 0 1 2 2761324597861805e-20 .0616893
94319312 ??-.0130601561079902 -.03461816752046425 .0275002 -.01271926384713774 -
.0352772636017435 .0269998 41 1 129 L-.0130601561079902 -.03461816752046425 .027
5002 41 1 130 L-.01271926384713774 -.0352772636017435 .0269998 40 9 137 0 1 9 .0
00825395629143107 .3531642710384535 ??-.01271949191723644 -.0352769687667089 .02
70002 -.0103644591596714 -.0360392561844373 .0230316890483998 -.0067951872789419
4 -.036879200504405 .02010929183827855 -.002604344698926035 -.0374094558726691 .
018613475472482 .001890877148320265 -.037452297441011 .0185007084560593 .0062040
2246062138 -.0369832408708067 .0197995966106659 .00979547719319491 -.03619804727
547605 .02240613515521995 .0122973113725781 -.03542634800548685 .026028885136338
55 .01271949191723642 -.03527696876670895 .0270002 41 1 138 L-.01271949191723644
 -.0352769687667089 .0270002 41 1 139 L.01271949191723642 -.03527696876670895 .0
270002 14 123 242 140 ?17 141 142 4 118 +0 0 17 141 26 50 124 252 0 143 118 144
 0 +0 0 -.054 0 0 -1 -1 0 0 14 143 210 145 ?146 147 148 4 124 +0 0 146 147 26 51
 144 251 0 147 124 18 0 -0 0 -.054 0 0 1 .018 1 0 0 14 147 204 149 ?143 66 150 4
 144 -0 0 143 66 26 52 18 250 0 146 144 5 0 +0 0 -.0535 0 0 1 .018 .707106781186
548 .707106781186548 1 0 0 14 146 215 151 ?141 143 152 4 18 +0 0 141 143 26 81 1
 151 362 84 146 153 0 145 154 155 14 141 231 154 ?123 146 156 4 121 +0 0 123 146
 26 15 152 219 0 157 146 158 13 26 249 0 0 0 0 0 0 8 15 14 15 221 159 ?160 0 161
 4 117 +0 0 160 0 26 81 1 159 355 84 15 162 0 0 163 164 14 160 179 163 ?75 15 10
2 4 93 -75 75 75 15 26 15 161 172 0 165 15 40 17 165 0 161 165 165 0 166 167 0 0
 +15 40 173 0 50 15 0 17 50 0 40 42 41 46 80 29 0 168 -17 42 0 40 38 50 39 168 7
8 0 43 +17 41 0 40 50 38 51 45 68 0 80 +17 80 0 69 28 89 51 50 29 0 0 +17 168 0
 32 34 33 46 42 78 0 89 -15 32 193 0 34 116 0 17 34 0 32 30 168 57 89 72 0 35 -1
7 33 0 32 168 30 39 104 97 0 42 -16 78 114 169 ?42 67 68 170 68 68 1 17 89 0 69
 80 103 46 34 72 0 0 +17 103 0 69 89 104 57 37 83 0 0 -81 1 169 381 84 78 171 0
 77 172 173 16 68 112 172 ?41 78 167 170 78 78 1 31 170 263 0 68 174 79 0 +0 0 .
027 0 0 -1 -1 0 0 .0375 31 174 264 0 167 0 170 0 -0 0 5e-4 0 0 -1 -1 0 0 .0375 3
1 79 262 0 67 170 175 0 -0 0 .0275 0 0 -1 -1 0 0 .037 31 175 261 0 176 79 177 0
 +0 0 0 0 0 -1 -1 0 0 .037 16 176 152 178 ?179 180 36 175 0 0 1 31 177 260 0 180
 175 115 0 -0 0 0 0 0 -1 1 1224646799147352e-31 0 .018 16 180 148 181 ?182 110 1
76 177 0 0 1 31 115 259 0 110 177 111 0 -0 0 -.0535 0 0 -1 -1 0 0 .018 16 110 13
5 183 ?184 105 180 115 0 0 1 81 1 183 376 84 110 185 0 107 181 186 17 184 0 150
 184 184 0 187 110 0 0 +15 150 208 0 184 147 188 17 187 0 158 187 187 0 184 110
 0 0 -15 158 220 0 187 146 0 15 188 209 0 189 147 0 17 189 0 188 189 189 0 182 1
80 0 0 -17 182 0 156 182 182 0 189 180 0 0 +15 156 235 0 182 141 190 15 190 236
 0 179 141 0 17 179 0 190 179 179 0 191 176 0 0 +17 191 0 192 191 191 0 179 176
 0 0 -15 192 247 0 191 123 0 80 1 84 0 193 8001 0 0 0 0 3 5 0 0 0 FFFFTFTFFFFFFF
2 81 1 185 317 194 110 0 183 195 196 197 81 1 107 375 84 105 198 0 100 183 199 8
1 1 181 377 84 180 200 0 183 178 201 83 3 186 .596078431372549 .666666666666667
 .686274509803922 81 1 200 312 194 180 0 181 0 202 203 81 1 178 378 84 176 196 0
 181 204 205 83 3 201 .596078431372549 .666666666666667 .686274509803922 81 1 19
6 318 194 176 0 178 185 206 207 81 1 204 379 84 36 208 0 178 77 209 83 3 205 .59
6078431372549 .666666666666667 .686274509803922 16 36 146 204 ?35 176 67 79 67 6
7 1 81 1 208 325 194 36 0 204 210 106 211 81 1 77 380 84 67 195 0 204 169 212 83
 3 209 .596078431372549 .666666666666667 .686274509803922 81 1 195 316 194 67 0
 77 198 185 213 83 3 212 .596078431372549 .666666666666667 .686274509803922 80 1
 194 214 215 9000 1 1 1 1 1 1 1 1 0 FFFFTFTFFFFFFF3 81 1 198 315 194 105 0 107 2
16 195 217 84 32 213 ab7ca1bf99182cb170fd738931259bf781 1 216 314 194 68 0 172 2
02 198 218 84 32 217 d1e062598f07ec6111044bad38ea391281 1 172 382 84 68 216 0 16
9 219 220 81 1 202 313 194 167 0 219 200 216 221 84 32 218 80f99c367f545c560b331
369db29633616 167 108 219 ?165 68 0 174 0 0 1 81 1 219 383 84 167 202 0 172 0 22
2 84 32 221 a7124b0b5d5b97503b5c142742f10c5a83 3 222 .596078431372549 .666666666
666667 .686274509803922 83 3 220 .596078431372549 .666666666666667 .686274509803
922 79 15 215 UGS/ObjectState81 1 210 324 194 44 0 99 223 208 224 81 1 106 326 1
94 97 0 100 208 171 225 84 32 211 e4e692a248d52851683e02878b6627a581 1 171 327 1
94 78 0 169 106 85 226 84 32 225 4f1b90450fe486fa91f6ad0814c7511f81 1 85 328 194
 76 0 81 171 227 228 84 32 226 1cb0a11b59a8ae56c84dae1d7be9c2db81 1 227 329 194
 143 0 229 85 230 231 84 32 228 c3a25b935a6b9026a9d1b49e8d3b6bfe81 3 229 342 232
 143 227 145 0 233 234 235 0 81 1 230 330 194 17 0 233 227 236 237 84 32 231 d31
0199f6d047a147a86667c3e46c89e14 17 11 238 ?0 123 69 4 5 -0 0 0 123 26 81 3 233 3
43 232 17 230 238 229 239 240 241 0 81 1 236 331 194 147 0 239 230 242 243 84 32
 237 210159ccf7fb37c8462763007c4f62a281 3 239 344 232 147 236 149 233 162 244 24
5 0 81 1 242 332 194 15 0 162 236 246 247 84 32 243 451ad85821ce8b791b69257f5b11
bcc281 3 162 345 232 15 242 159 239 248 249 250 0 81 1 246 333 194 141 0 251 242
 252 253 84 32 247 db005c32828c6e020c1fa12a6fb920c881 3 251 348 232 141 246 154
 254 153 255 256 0 81 1 252 334 194 75 0 248 246 257 258 84 32 253 0dfdd0eaf55ff
c0f6d27c58b055d3d8014 75 226 259 ?116 160 74 4 93 -160 160 116 160 26 81 3 248 3
46 232 75 252 259 162 254 260 261 0 81 1 257 335 194 146 0 153 252 262 263 84 32
 258 0fb91d76368264728741c697dfac76b481 3 153 349 232 146 257 151 251 264 265 26
6 0 81 1 262 336 194 123 0 264 257 267 268 84 32 263 280a7aad4f2f3b3456a88018cc5
85ee881 3 264 350 232 123 262 140 153 269 270 271 0 81 1 267 337 194 66 0 269 26
2 272 273 84 32 268 740935ad698450ba612c6c715d0f7d5c14 66 237 274 ?147 116 61 4
 21 +116 116 147 116 26 81 3 269 351 232 66 267 274 264 275 276 277 0 81 1 272 3
38 194 116 0 275 267 278 279 84 32 273 b6ad012e5f70b0d0f75338da2d7f24c181 3 275
 352 232 116 272 120 269 0 280 281 0 81 1 278 339 194 160 0 254 272 0 282 84 32
 279 2aed7d3aceee9501b42ee53f601d4dca81 3 254 347 232 160 278 163 248 251 283 28
4 0 84 32 282 f16228805b36a49fbf3b4bcdf3e0ad5180 3 232 285 286 9000 0 0 0 0 3 6
 0 0 0 FFFFTFTTFFFFFF1 1 3 81 1 163 356 84 160 254 0 159 259 287 82 1 283 0 82 1
 284 117 81 1 259 357 84 75 248 0 163 120 288 83 3 287 .596078431372549 .6666666
66666667 .686274509803922 81 1 120 358 84 116 275 0 259 274 289 83 3 288 .596078
431372549 .666666666666667 .686274509803922 81 1 274 359 84 66 269 0 120 149 290
 83 3 289 .596078431372549 .666666666666667 .686274509803922 81 1 149 360 84 147
 239 0 274 145 291 83 3 290 .596078431372549 .666666666666667 .686274509803922 8
1 1 145 361 84 143 229 0 149 151 292 83 3 291 .596078431372549 .666666666666667
 .686274509803922 83 3 292 .596078431372549 .666666666666667 .686274509803922 79
 27 286 MONIKER/MONIKER_DATA_ATTRIB82 1 280 0 82 1 281 124 82 1 276 0 82 1 277 1
24 81 1 140 364 84 123 264 0 154 238 293 82 1 270 0 82 1 271 123 81 1 154 363 84
 141 251 0 151 140 294 81 1 238 365 84 17 233 0 140 27 295 83 3 293 .59607843137
2549 .666666666666667 .686274509803922 81 1 27 367 84 9 223 0 238 86 296 83 3 29
5 .596078431372549 .666666666666667 .686274509803922 81 1 223 323 194 9 0 27 297
 210 298 81 1 86 368 84 29 206 0 27 81 299 83 3 296 .596078431372549 .6666666666
66667 .686274509803922 81 1 206 319 194 29 0 86 196 98 300 83 3 299 .59607843137
2549 .666666666666667 .686274509803922 81 1 98 320 194 83 0 96 206 301 302 84 32
 300 f49c7aa6ce9ca602ed76ca5dcacbd85381 1 301 321 194 72 0 87 98 297 303 84 32 3
02 68f19a35f3d8d1b247543cd5b8ad678281 1 87 370 84 72 301 0 81 71 304 81 1 297 32
2 194 64 0 71 301 223 305 84 32 303 ef3e46fdf8837a7118873906ae7033e481 1 71 371
 84 64 297 0 87 99 306 84 32 305 23e4557492000cee9e37bc0f76d725b281 1 99 372 84
 44 210 0 71 96 307 83 3 306 .596078431372549 .666666666666667 .686274509803922
 83 3 307 .596078431372549 .666666666666667 .686274509803922 83 3 304 .596078431
372549 .666666666666667 .686274509803922 84 32 298 d1004c636a4dcd00bbb7d5b0ad024
82783 3 294 .596078431372549 .666666666666667 .686274509803922 82 1 265 0 82 1 2
66 122 82 1 260 0 82 1 261 117 50 93 257 0 160 0 121 308 +0 0 .0275 0 0 -1 -1 0
 0 50 121 256 0 141 93 117 0 +0 0 0 0 0 -1 -1 0 0 141 308 82 308 308 93 82 1 255
 0 82 1 256 118 82 1 249 0 82 1 250 116 82 1 244 0 82 1 245 110 82 1 240 0 82 1
 241 69 82 1 234 0 82 1 235 24 84 32 224 307e81a3c74abbf8ffe70a63c53ccf8817 35 0
 102 37 37 57 30 36 0 103 +15 102 183 0 35 160 0 84 32 207 8426f4c9b4b9baf6a8e16
00b7e7817ee84 32 203 287fade22bd7e9ba2f82bd6d1df6cdc183 3 199 .596078431372549 .
666666666666667 .686274509803922 84 32 197 de5460212e502c20deb99404816ac0e079 15
 193 SDL/TYSA_COLOUR83 3 173 .596078431372549 .666666666666667 .686274509803922
 17 43 0 69 104 63 39 38 44 0 0 +17 166 0 142 166 166 0 165 167 0 0 -15 142 246
 0 166 123 192 83 3 164 .596078431372549 .666666666666667 .686274509803922 17 15
7 0 152 157 157 0 109 105 0 0 -17 109 0 148 109 109 0 157 105 0 0 +15 148 214 0
 109 143 0 83 3 155 .596078431372549 .666666666666667 .686274509803922 141 122 9
2 309 309 117 141 309 20 122 122 117 83 3 108 .596078431372549 .666666666666667
 .686274509803922 83 3 101 .596078431372549 .666666666666667 .686274509803922 40
 25 94 0 1 25 .00679702214713628 .388787618539588 ??-.0118215904175369 0 .0275 -
.01395962666594964 .028 .0275 -.01254088661895696 .03643258951311785 .0275 -.009
8058137725325 .04192661690669935 .0275 -.00652679312985897 .0452319732091505 .02
75 -.00303502265202047 .0469564788538549 .0275 .000852385808561806 .047365368275
9098 .0275 .004319557384954635 .0464882082393995 .0275 .00741009277605632 .04454
0987250866 .0275 .01066589562527964 .0406165847450202 .0275 .013215306225747 .03
39556374750778 .0275 .01384644680502392 .0219175456798257 .0275 .012066385090455
92 -.00577971822566786 .0275 .01330734433738926 -.03352425150375555 .0275 .01163
399344069962 -.03876347392406305 .0275 .00860557825814866 -.04339229246404475 .0
275 .00525119035693364 -.0460326606322523 .0275 .001159141439715236 -.0473359870
817363 .0275 -.00257354987661751 -.0470823382271425 .0275 -.00584576107835448 -.
04568640436381 .0275 -.00877479449205751 -.043206714312598 .0275 -.0118296389499
1828 -.038321859533842 .0275 -.0138229014562977 -.0300202468184255 .0275 -.01336
886228971396 -.0169918082917669 .0275 -.0118215904175369 -468087930441692e-32 .0
275 41 1 95 H-.0118215904175369 -468087930441692e-32 .0275 83 3 88 .596078431372
549 .666666666666667 .686274509803922 17 53 0 61 45 62 51 28 9 0 41 -19 16 1 0 1
 0 8 4 S40 2 22 0 1 2 276132459788152e-19 .0616893943193118 ??-.0127192638471376
4 .0352772636017435 .0269998 -.01306015610799028 .03461816752046425 .0275002 41
 1 23 L-.01271926384713764 .0352772636017435 .0269998 41 1 24 L-.013060156107990
28 .03461816752046425 .0275002 141 19 91 310 311 5 141 310 6 312 19 5 141 311 82
 19 313 5 141 313 92 311 314 5 141 314 73 313 315 5 141 315 90 314 312 5 141 312
 20 315 310 5 74 20 14 8 0 316 278 317 275 318 12 219 2 0 0 0 0 0 0 0 0 0 0 0 0
 81 2 316 311 319 1 0 317 0 0 320 321 81 1 317 341 322 1 316 318 0 0 323 81 3 31
8 353 324 1 317 12 0 0 325 326 327 81 2 12 354 328 1 318 2 0 0 329 0 80 2 328 32
4 330 9000 2 2 2 2 3 6 0 0 0 FFTFFFFFFFFFFF2 3 83 1 329 9530 79 22 330 MONIKER/B
ODY_ID_ATTRIB80 3 324 232 331 9000 0 0 0 0 3 6 0 0 0 FFTFFFFFFFFFFF3 3 1 84 38 3
25 {3c2f47b0-47b0-48f1-be40-2d382db258cd}84 21 326 NX 2406.7001-Eleandro82 1 327
 0 79 25 331 MONIKER/GUID_TABLE_ATTRIB80 1 322 332 333 9000 0 0 0 0 3 5 0 0 0 FF
TFFFFFFFFFFF1 82 1 323 -1 79 19 333 UG2/PMARK_ATTRIBUTE80 2 319 334 335 8004 0 0
 0 0 3 5 0 0 0 FFTFFFFFFFFFFF2 3 83 1 320 7830.64 84 8 321 Kg/Cu M 79 16 335 SDL
/TYSA_DENSITY80 1 11 84 336 8040 0 0 0 0 3 5 0 0 0 TTTFFFFFFFFFFF2 83 3 13 .5960
78431372549 .666666666666667 .686274509803922 79 17 336 SDL/TYSA_COLOUR_21 0 
