**ABCDEFGHIJKLMNOPQRSTUVWXYZabcdefghijklmnopqrstuvwxyz**************************
**PARASOLID !"#$%&'()*+,-./:;<=>?@[\]^_`{|}~0123456789**************************
**PART1;
MC=^_;
MC_MODEL=genuineintel family 6 model 14 stepping 4, intel(r) xeon(r) cpu e5-2620 v2 @ 2.10ghz;
MC_ID=^_;
OS=windows nt (x64);
OS_RELEASE=6.3 windows 10 pro (build 19045) ;
FRU=mdc_ugii_v7.0_djl_can_vrh;
APPL=unigraphics;
SITE=unknown;
USER=^_;
FORMAT=text;
GUISE=transmit;
KEY=olhal_M10;
FILE=^_;
DATE=7-apr-2025;
**PART2;
SCH=SCH_3601193_36001;
USFLD_SIZE=0;
**PART3;
**END_OF_HEADER*****************************************************************
T51 : TRANSMIT FILE created by modeller version 360119317 SCH_1400000_140000 12
 1 383 2 3 0 0 0 0 1e3 1e-8 0 0 0 1 0 1 1 4 5 6 7 8 9 10 81 1 2 366 11 1 12 0 0
 0 13 70 3 0 4 T1 0 0 8 20 1 14 14 13 4 107 0 1 0 15 0 0 16 0 54 5 14 0 17 18 0
 19 -0 0 .0225 1 0 0 .0175 .005 0 0 -1 38 6 65 0 9 20 0 0 +5 21 22 23 24 29 7 38
 0 10 25 0 .00497273689681025 -.01092116695940062 .0095 19 8 248 0 1 16 0 26 V16
 9 63 27 ?28 0 29 6 0 0 1 18 10 36 0 30 0 31 7 ?1 17 30 0 32 33 34 10 35 36 0 37
 -18 31 161 0 38 10 39 25 ?1 17 38 0 40 41 42 31 43 44 0 45 -18 39 165 0 33 31 4
6 47 ?1 29 25 265 0 31 47 7 -.00499570734098132 -.01145831175013428 .009 29 47 2
66 0 39 48 25 .00499570734098828 -.01145831175013124 .009 29 48 267 0 46 49 47 .
00499570734098132 .01145831175013428 .009 18 46 160 0 50 39 51 48 ?1 29 49 268 0
 51 52 48 -.00499570734098828 .01145831175013124 .009 18 51 162 0 53 46 54 49 ?1
 29 52 269 0 54 55 49 -.00497273689681022 .01092116695940054 .0095 18 54 164 0 5
6 51 57 52 ?1 29 55 270 0 57 58 52 .00497273689681024 .01092116695940054 .0095 1
8 57 166 0 34 54 59 55 ?1 29 58 272 0 59 0 55 -.00497273689681024 -.010921166959
40054 .0095 18 59 167 0 60 57 0 58 ?1 17 60 0 61 62 45 59 63 64 0 65 -15 61 198
 0 60 66 0 17 62 0 61 53 60 54 65 67 0 28 -17 45 0 61 60 53 31 41 68 0 63 -17 63
 0 69 43 70 31 60 64 0 0 +16 64 49 71 ?63 72 44 73 0 0 1 17 65 0 74 56 56 59 62
 67 0 70 +15 74 188 0 65 75 0 17 56 0 74 65 65 54 70 76 0 62 +16 67 124 77 ?65 3
6 78 79 36 36 1 17 70 0 69 63 28 59 56 76 0 0 -15 69 34 0 80 17 0 17 28 0 69 70
 80 54 53 9 0 0 +16 76 57 81 ?56 29 72 82 83 83 1 81 1 81 369 84 76 85 0 86 87 8
8 16 29 60 86 ?80 9 76 20 0 0 1 16 72 53 87 ?89 76 64 90 0 0 1 38 82 43 0 83 91
 92 0 +5 93 94 95 95 16 83 41 96 ?37 44 97 82 76 76 1 81 1 96 373 84 83 98 0 99
 100 101 17 37 0 102 35 35 10 103 83 0 104 +16 44 45 99 ?43 64 83 92 0 0 1 16 97
 37 100 ?104 83 105 91 0 0 1 81 1 100 374 84 97 106 0 96 107 108 17 104 0 69 103
 43 10 33 97 0 0 +16 105 137 107 ?109 97 110 111 0 0 1 38 91 39 0 97 111 82 0 +5
 21 112 113 114 31 111 258 0 105 115 91 0 +0 0 -.018 0 0 -1 -1 0 0 .0045 52 21 2
54 0 116 117 118 119 +0 0 .009 0 0 -1 .0125 .707106781186548 .707106781186548 -1
 0 0 40 2 112 0 1 2 55495282781889e-18 .1506476067862025 ??.00499569501125236 -.
01145853530755776 .0089998 .0049727069294768 -.01092096084754146 .0095002 41 1 1
13 L.00499569501125236 -.01145853530755776 .0089998 41 1 114 L.0049727069294768
 -.01092096084754146 .0095002 14 116 189 120 ?66 75 32 4 21 +66 66 66 75 26 51 1
17 255 0 15 121 21 122 +0 0 .0095 0 0 -1 .0125 -1 0 0 52 118 253 0 123 21 124 0
 +0 0 0 0 0 1 .012 .707106781186548 .707106781186548 1 0 0 141 119 91 125 126 21
 141 125 6 127 119 21 141 126 73 119 127 21 38 73 51 0 64 92 90 0 +5 21 128 129
 130 141 127 90 126 125 21 38 90 55 0 72 73 20 0 +5 21 131 132 133 38 20 62 0 29
 90 6 0 +5 117 134 135 136 40 2 131 0 1 2 554952827818896e-19 .1506476067862025
 ??.0049727069294768 .01092096084754146 .0095002 .00499569501125236 .01145853530
755776 .0089998 41 1 132 L.0049727069294768 .01092096084754146 .0095002 41 1 133
 L.00499569501125236 .01145853530755776 .0089998 40 11 134 0 1 11 .0003395111383
52997 .3497734900676255 ??.00499571373587647 .01145830896202294 .0090002 .004653
45000645787 .01160152589263142 .00703983989842334 .003876186459773545 .011883820
0309946 .00560200393266439 .002657802697020015 .01221417556872804 .0045214418557
0021 .00118766149808661 .01244345049276778 .00392605488467769 -.0004374975504381
31 .01249234148962318 .003809660290647665 -.0020314878001075 .0123338176295101 .
004199599891513145 -.003388963374166345 .01203182975480284 .00507389060068654 -.
004348367591239835 .01171928749077584 .00633260106887596 -.00486909655799564 .01
15126842529844 .00784457087754339 -.00499571373587647 .01145830896202294 .009000
2 41 1 135 L.00499571373587647 .01145830896202294 .0090002 41 1 136 L-.004995713
73587647 .01145830896202294 .0090002 38 92 47 0 44 82 73 0 +5 117 137 138 139 40
 2 128 0 1 2 554952827818896e-19 .1506476067862025 ??-.0049727069294768 -.010920
96084754146 .0095002 -.00499569501125236 -.01145853530755776 .0089998 41 1 129 L
-.0049727069294768 -.01092096084754146 .0095002 41 1 130 L-.00499569501125236 -.
01145853530755776 .0089998 40 11 137 0 1 11 .000339511138352997 .349773490067625
5 ??-.00499571373587647 -.01145830896202294 .0090002 -.00465345000645787 -.01160
152589263142 .00703983989842334 -.003876186459773545 -.0118838200309946 .0056020
0393266439 -.002657802697020015 -.01221417556872804 .00452144185570021 -.0011876
6149808661 -.01244345049276778 .00392605488467769 .000437497550438131 -.01249234
148962318 .003809660290647665 .0020314878001075 -.0123338176295101 .004199599891
513145 .003388963374166345 -.01203182975480284 .00507389060068654 .0043483675912
39835 -.01171928749077584 .00633260106887596 .00486909655799564 -.01151268425298
44 .00784457087754339 .00499571373587647 -.01145830896202294 .0090002 41 1 138 L
-.00499571373587647 -.01145830896202294 .0090002 41 1 139 L.00499571373587647 -.
01145830896202294 .0090002 14 123 242 140 ?17 141 142 4 118 +0 0 17 141 26 50 12
4 252 0 143 118 144 0 +0 0 -.018 0 0 -1 -1 0 0 14 143 210 145 ?146 147 148 4 124
 +0 0 146 147 26 51 144 251 0 147 124 18 0 -0 0 -.018 0 0 1 .005 1 0 0 14 147 20
4 149 ?143 66 150 4 144 -0 0 143 66 26 52 18 250 0 146 144 5 0 +0 0 -.0175 0 0 1
 .005 .707106781186547 .707106781186548 1 0 0 14 146 215 151 ?141 143 152 4 18 +
0 0 141 143 26 81 1 151 362 84 146 153 0 145 154 155 14 141 231 154 ?123 146 156
 4 121 +0 0 123 146 26 15 152 219 0 157 146 158 13 26 249 0 0 0 0 0 0 8 15 14 15
 221 159 ?160 0 161 4 117 +0 0 160 0 26 81 1 159 355 84 15 162 0 0 163 164 14 16
0 179 163 ?75 15 102 4 93 -75 75 75 15 26 15 161 172 0 165 15 40 17 165 0 161 16
5 165 0 166 167 0 0 +15 40 173 0 50 15 0 17 50 0 40 42 41 46 80 29 0 168 -17 42
 0 40 38 50 39 168 78 0 43 +17 41 0 40 50 38 51 45 68 0 80 +17 80 0 69 28 89 51
 50 29 0 0 +17 168 0 32 34 33 46 42 78 0 89 -15 32 193 0 34 116 0 17 34 0 32 30
 168 57 89 72 0 35 -17 33 0 32 168 30 39 104 97 0 42 -16 78 114 169 ?42 67 68 17
0 68 68 1 17 89 0 69 80 103 46 34 72 0 0 +17 103 0 69 89 104 57 37 83 0 0 -81 1
 169 381 84 78 171 0 77 172 173 16 68 112 172 ?41 78 167 170 78 78 1 31 170 263
 0 68 174 79 0 +0 0 .009 0 0 -1 -1 0 0 .0125 31 174 264 0 167 0 170 0 -0 0 5e-4
 0 0 -1 -1 0 0 .0125 31 79 262 0 67 170 175 0 -0 0 .0095 0 0 -1 -1 0 0 .012 31 1
75 261 0 176 79 177 0 +0 0 0 0 0 -1 -1 0 0 .012 16 176 152 178 ?179 180 36 175 0
 0 1 31 177 260 0 180 175 115 0 -0 0 0 0 0 -1 1 1224646799147352e-31 0 .005 16 1
80 148 181 ?182 110 176 177 0 0 1 31 115 259 0 110 177 111 0 -0 0 -.0175 0 0 -1
 -1 0 0 .005 16 110 135 183 ?184 105 180 115 0 0 1 81 1 183 376 84 110 185 0 107
 181 186 17 184 0 150 184 184 0 187 110 0 0 +15 150 208 0 184 147 188 17 187 0 1
58 187 187 0 184 110 0 0 -15 158 220 0 187 146 0 15 188 209 0 189 147 0 17 189 0
 188 189 189 0 182 180 0 0 -17 182 0 156 182 182 0 189 180 0 0 +15 156 235 0 182
 141 190 15 190 236 0 179 141 0 17 179 0 190 179 179 0 191 176 0 0 +17 191 0 192
 191 191 0 179 176 0 0 -15 192 247 0 191 123 0 80 1 84 0 193 8001 0 0 0 0 3 5 0
 0 0 FFFFTFTFFFFFFF2 81 1 185 317 194 110 0 183 195 196 197 81 1 107 375 84 105
 198 0 100 183 199 81 1 181 377 84 180 200 0 183 178 201 83 3 186 .5960784313725
49 .666666666666667 .686274509803922 81 1 200 312 194 180 0 181 0 202 203 81 1 1
78 378 84 176 196 0 181 204 205 83 3 201 .596078431372549 .666666666666667 .6862
74509803922 81 1 196 318 194 176 0 178 185 206 207 81 1 204 379 84 36 208 0 178
 77 209 83 3 205 .596078431372549 .666666666666667 .686274509803922 16 36 146 20
4 ?35 176 67 79 67 67 1 81 1 208 325 194 36 0 204 210 106 211 81 1 77 380 84 67
 195 0 204 169 212 83 3 209 .596078431372549 .666666666666667 .686274509803922 8
1 1 195 316 194 67 0 77 198 185 213 83 3 212 .596078431372549 .666666666666667 .
686274509803922 80 1 194 214 215 9000 1 1 1 1 1 1 1 1 0 FFFFTFTFFFFFFF3 81 1 198
 315 194 105 0 107 216 195 217 84 32 213 84810185ebef60b185243631822f38e881 1 21
6 314 194 68 0 172 202 198 218 84 32 217 60d30b142b276a0f54bfbdf96daf1d0c81 1 17
2 382 84 68 216 0 169 219 220 81 1 202 313 194 167 0 219 200 216 221 84 32 218 9
776fc4c1f82d7072e04d00bf4022fe116 167 108 219 ?165 68 0 174 0 0 1 81 1 219 383 8
4 167 202 0 172 0 222 84 32 221 b1ebc9e2e981f6f2bff047a26602d2b883 3 222 .596078
431372549 .666666666666667 .686274509803922 83 3 220 .596078431372549 .666666666
666667 .686274509803922 79 15 215 UGS/ObjectState81 1 210 324 194 44 0 99 223 20
8 224 81 1 106 326 194 97 0 100 208 171 225 84 32 211 5164a1dc8671e7ab521549a520
9c1d7881 1 171 327 194 78 0 169 106 85 226 84 32 225 7690382ab2dde505ed5832eab61
788b581 1 85 328 194 76 0 81 171 227 228 84 32 226 1fff4bdb6d449a757e9e18ed08c43
00281 1 227 329 194 143 0 229 85 230 231 84 32 228 0990ad2410b657284e1e78f3593b9
40d81 3 229 342 232 143 227 145 0 233 234 235 0 81 1 230 330 194 17 0 233 227 23
6 237 84 32 231 61fe3aae23439d05e3f07ca08cef456414 17 11 238 ?0 123 69 4 5 -0 0
 0 123 26 81 3 233 343 232 17 230 238 229 239 240 241 0 81 1 236 331 194 147 0 2
39 230 242 243 84 32 237 3d6692a844a44e432694506ff765d2c381 3 239 344 232 147 23
6 149 233 162 244 245 0 81 1 242 332 194 15 0 162 236 246 247 84 32 243 557a4610
92615f8ee6fb7d9dd4c9294781 3 162 345 232 15 242 159 239 248 249 250 0 81 1 246 3
33 194 141 0 251 242 252 253 84 32 247 d40f8b817ef3056d1d6ad1e2e54cf85981 3 251
 348 232 141 246 154 254 153 255 256 0 81 1 252 334 194 75 0 248 246 257 258 84
 32 253 9df25b4ff6f0fac1d75e356843d840d414 75 226 259 ?116 160 74 4 93 -160 160
 116 160 26 81 3 248 346 232 75 252 259 162 254 260 261 0 81 1 257 335 194 146 0
 153 252 262 263 84 32 258 d825dee99f8f08ce7e7025dd0b28ec8d81 3 153 349 232 146
 257 151 251 264 265 266 0 81 1 262 336 194 123 0 264 257 267 268 84 32 263 eeb4
82e4eb908b8d06d8d59751986fa281 3 264 350 232 123 262 140 153 269 270 271 0 81 1
 267 337 194 66 0 269 262 272 273 84 32 268 459f7b03e9e1078c2b79be429b041a6314 6
6 237 274 ?147 116 61 4 21 +116 116 147 116 26 81 3 269 351 232 66 267 274 264 2
75 276 277 0 81 1 272 338 194 116 0 275 267 278 279 84 32 273 8f4a7aaad0e1d3004f
b68554578f84e281 3 275 352 232 116 272 120 269 0 280 281 0 81 1 278 339 194 160
 0 254 272 0 282 84 32 279 934d354e45613ee879fbe97d2f778e2281 3 254 347 232 160
 278 163 248 251 283 284 0 84 32 282 a0f99bc04688ba0421cc020d7e822a0d80 3 232 28
5 286 9000 0 0 0 0 3 6 0 0 0 FFFFTFTTFFFFFF1 1 3 81 1 163 356 84 160 254 0 159 2
59 287 82 1 283 0 82 1 284 117 81 1 259 357 84 75 248 0 163 120 288 83 3 287 .59
6078431372549 .666666666666667 .686274509803922 81 1 120 358 84 116 275 0 259 27
4 289 83 3 288 .596078431372549 .666666666666667 .686274509803922 81 1 274 359 8
4 66 269 0 120 149 290 83 3 289 .596078431372549 .666666666666667 .6862745098039
22 81 1 149 360 84 147 239 0 274 145 291 83 3 290 .596078431372549 .666666666666
667 .686274509803922 81 1 145 361 84 143 229 0 149 151 292 83 3 291 .59607843137
2549 .666666666666667 .686274509803922 83 3 292 .596078431372549 .66666666666666
7 .686274509803922 79 27 286 MONIKER/MONIKER_DATA_ATTRIB82 1 280 0 82 1 281 124
 82 1 276 0 82 1 277 124 81 1 140 364 84 123 264 0 154 238 293 82 1 270 0 82 1 2
71 123 81 1 154 363 84 141 251 0 151 140 294 81 1 238 365 84 17 233 0 140 27 295
 83 3 293 .596078431372549 .666666666666667 .686274509803922 81 1 27 367 84 9 22
3 0 238 86 296 83 3 295 .596078431372549 .666666666666667 .686274509803922 81 1
 223 323 194 9 0 27 297 210 298 81 1 86 368 84 29 206 0 27 81 299 83 3 296 .5960
78431372549 .666666666666667 .686274509803922 81 1 206 319 194 29 0 86 196 98 30
0 83 3 299 .596078431372549 .666666666666667 .686274509803922 81 1 98 320 194 83
 0 96 206 301 302 84 32 300 1cb53c344e87c56b9e6f9740b83f970181 1 301 321 194 72
 0 87 98 297 303 84 32 302 850c45c52a6ea48cefc7cb0e09e8e63181 1 87 370 84 72 301
 0 81 71 304 81 1 297 322 194 64 0 71 301 223 305 84 32 303 95e83ab8dfaaff12ab99
cb2cfae7431e81 1 71 371 84 64 297 0 87 99 306 84 32 305 475b00910a0bba85c93930cf
54b406dd81 1 99 372 84 44 210 0 71 96 307 83 3 306 .596078431372549 .66666666666
6667 .686274509803922 83 3 307 .596078431372549 .666666666666667 .68627450980392
2 83 3 304 .596078431372549 .666666666666667 .686274509803922 84 32 298 2267e506
0e674a30db6ff41eb90d88e483 3 294 .596078431372549 .666666666666667 .686274509803
922 82 1 265 0 82 1 266 122 82 1 260 0 82 1 261 117 50 93 257 0 160 0 121 308 +0
 0 .0095 0 0 -1 -1 0 0 50 121 256 0 141 93 117 0 +0 0 0 0 0 -1 -1 0 0 141 308 82
 308 308 93 82 1 255 0 82 1 256 118 82 1 249 0 82 1 250 116 82 1 244 0 82 1 245
 110 82 1 240 0 82 1 241 69 82 1 234 0 82 1 235 24 84 32 224 ade39d1345cf23d2c4c
9661a16f452da17 35 0 102 37 37 57 30 36 0 103 +15 102 183 0 35 160 0 84 32 207 0
31204a9c5f510efd31af629c387514d84 32 203 63a7bd205bd00b040f8dc803f92cd2ba83 3 19
9 .596078431372549 .666666666666667 .686274509803922 84 32 197 20f638b8dd83c0a92
caeb7875f28d43b79 15 193 SDL/TYSA_COLOUR83 3 173 .596078431372549 .6666666666666
67 .686274509803922 17 43 0 69 104 63 39 38 44 0 0 +17 166 0 142 166 166 0 165 1
67 0 0 -15 142 246 0 166 123 192 83 3 164 .596078431372549 .666666666666667 .686
274509803922 17 157 0 152 157 157 0 109 105 0 0 -17 109 0 148 109 109 0 157 105
 0 0 +15 148 214 0 109 143 0 83 3 155 .596078431372549 .666666666666667 .6862745
09803922 141 122 92 309 309 117 141 309 20 122 122 117 83 3 108 .596078431372549
 .666666666666667 .686274509803922 83 3 101 .596078431372549 .666666666666667 .6
86274509803922 40 29 94 0 1 29 .001823008305295885 .3865153318484265 ??-.0021794
4947177043 0 .0095 -.002614781122882065 .0025 .0095 -.00488453001264456 .0100498
3587885768 .0095 -.0047232623057366 .0140482569738268 .0095 -.00394870185278045
 .01593769022043625 .0095 -.00258320796706041 .0174760506303372 .0095 -.00126687
0303816062 .0181640993825265 .0095 .0002100980137851315 .0183589568454999 .0095
 .00156224742305823 .0180567964730267 .0095 .002760215153667625 .017336347545887
1 .0095 .00378429771839625 .016195837870936 .0095 .00469247760551515 .0141653326
9750276 .0095 .00498240782346032 .0110796421711561 .0095 .003841879909909345 .00
595736387181043 .0095 .00218453848396029 .000253340201429845 .0095 .003768313313
526965 -.00574709179133698 .0095 .00498904517074838 -.01220399153815568 .0095 .0
0461656388866381 -.01442726188639316 .0095 .003599157961046415 -.016455153970081
35 .0095 .00239459525134775 -.0176108276490381 .0095 .000852969019170516 -.01827
44957773279 .0095 -.00061766646064812 -.01831742512211915 .0095 -.00192517104011
798 -.0178899865645496 .0095 -.00307675911182166 -.0170507406116177 .0095 -.0040
401207037432 -.01578063894799715 .0095 -.00483796149956478 -.01352903209814396 .
0095 -.00489098803691225 -.0100987566309211 .0095 -.00351798420895686 -.00505162
300106908 .0095 -.00217944947177033 -35084035226029e-30 .0095 41 1 95 H-.0021794
4947177033 -35084035226029e-30 .0095 83 3 88 .596078431372549 .666666666666667 .
686274509803922 17 53 0 61 45 62 51 28 9 0 41 -19 16 1 0 1 0 8 4 S40 2 22 0 1 2
 55495282781889e-18 .1506476067862025 ??-.00499569501125236 .01145853530755776 .
0089998 -.0049727069294768 .01092096084754146 .0095002 41 1 23 L-.00499569501125
236 .01145853530755776 .0089998 41 1 24 L-.0049727069294768 .01092096084754146 .
0095002 141 19 91 310 311 5 141 310 6 312 19 5 141 311 82 19 313 5 141 313 92 31
1 314 5 141 314 73 313 315 5 141 315 90 314 312 5 141 312 20 315 310 5 74 20 14
 8 0 316 278 317 275 318 12 219 2 0 0 0 0 0 0 0 0 0 0 0 0 81 2 316 311 319 1 0 3
17 0 0 320 321 81 1 317 341 322 1 316 318 0 0 323 81 3 318 353 324 1 317 12 0 0
 325 326 327 81 2 12 354 328 1 318 2 0 0 329 0 80 2 328 324 330 9000 2 2 2 2 3 6
 0 0 0 FFTFFFFFFFFFFF2 3 83 1 329 9530 79 22 330 MONIKER/BODY_ID_ATTRIB80 3 324
 232 331 9000 0 0 0 0 3 6 0 0 0 FFTFFFFFFFFFFF3 3 1 84 38 325 {e1746b34-6b34-41d
9-8348-a5e9bdd1560a}84 21 326 NX 2406.7001-Eleandro82 1 327 0 79 25 331 MONIKER/
GUID_TABLE_ATTRIB80 1 322 332 333 9000 0 0 0 0 3 5 0 0 0 FFTFFFFFFFFFFF1 82 1 32
3 -1 79 19 333 UG2/PMARK_ATTRIBUTE80 2 319 334 335 8004 0 0 0 0 3 5 0 0 0 FFTFFF
FFFFFFFF2 3 83 1 320 7830.64 84 8 321 Kg/Cu M 79 16 335 SDL/TYSA_DENSITY80 1 11
 84 336 8040 0 0 0 0 3 5 0 0 0 TTTFFFFFFFFFFF2 83 3 13 .596078431372549 .6666666
66666667 .686274509803922 79 17 336 SDL/TYSA_COLOUR_21 0 
