**ABCDEFGHIJKLMNOPQRSTUVWXYZabcdefghijklmnopqrstuvwxyz**************************
**PARASOLID !"#$%&'()*+,-./:;<=>?@[\]^_`{|}~0123456789**************************
**PART1;
MC=^_;
MC_MODEL=genuineintel family 6 model 14 stepping 4, intel(r) xeon(r) cpu e5-2620 v2 @ 2.10ghz;
MC_ID=^_;
OS=windows nt (x64);
OS_RELEASE=6.3 windows 10 pro (build 19045) ;
FRU=mdc_ugii_v7.0_djl_can_vrh;
APPL=unigraphics;
SITE=unknown;
USER=^_;
FORMAT=text;
GUISE=transmit;
KEY=olhal_M20;
FILE=^_;
DATE=7-apr-2025;
**PART2;
SCH=SCH_3601193_36001;
USFLD_SIZE=0;
**PART3;
**END_OF_HEADER*****************************************************************
T51 : TRANSMIT FILE created by modeller version 360119317 SCH_1400000_140000 12
 1 389 2 3 0 0 0 0 1e3 1e-8 0 0 0 1 0 1 1 4 5 6 7 8 9 10 81 1 2 372 11 1 12 0 0
 0 13 70 3 0 4 T1 0 0 8 20 1 14 14 13 4 115 0 1 0 15 0 0 16 0 54 5 14 0 17 18 0
 19 -0 0 .035 1 0 0 .028 .008 0 0 -1 38 6 73 0 9 20 0 0 +5 21 22 23 24 29 7 61 0
 10 25 0 -.00784592848234038 .01785193004271525 .0155 19 8 256 0 1 16 0 26 V16 9
 71 27 ?28 0 29 6 0 0 1 18 10 59 0 30 0 31 7 ?1 17 30 0 32 33 34 10 35 36 0 37 -
18 31 36 0 38 10 39 25 ?1 17 38 0 40 41 42 31 43 44 0 45 -18 39 169 0 46 31 47 4
8 ?1 29 25 38 0 31 48 7 .00784592848234038 -.01785193004271525 .0155 29 48 273 0
 39 49 25 -.00795394908975717 -.0183503322552359 .015 29 49 274 0 47 50 48 .0079
5394908975717 -.0183503322552359 .015 18 47 174 0 41 39 51 49 ?1 29 50 275 0 51
 52 49 .00795394908975717 .0183503322552359 .015 18 51 168 0 53 47 54 50 ?1 29 5
2 276 0 54 55 50 -.00795394908975717 .0183503322552359 .015 18 54 170 0 33 51 56
 52 ?1 29 55 278 0 56 57 52 .00784592848233996 .01785193004271545 .0155 18 56 17
5 0 42 54 58 55 ?1 29 57 280 0 58 0 55 -.00784592848233996 -.01785193004271545 .
0155 18 58 173 0 34 56 0 57 ?1 17 34 0 32 30 59 58 60 61 0 35 -15 32 206 0 34 62
 0 17 59 0 32 34 33 39 63 64 0 60 -17 60 0 65 66 67 39 34 61 0 0 +16 61 48 68 ?6
0 69 70 71 0 0 1 17 35 0 72 45 37 58 30 36 0 67 +15 72 191 0 35 73 0 17 45 0 72
 43 35 31 67 74 0 75 +17 37 0 72 35 43 10 76 77 0 78 +16 36 127 79 ?35 44 80 81
 44 44 1 17 67 0 65 60 75 58 45 74 0 0 -15 65 34 0 67 17 0 17 75 0 65 67 66 31 4
1 82 0 0 +16 74 41 83 ?45 70 82 84 0 0 1 81 1 83 379 85 74 86 0 87 88 89 16 70 4
5 87 ?66 61 74 90 0 0 1 16 82 37 88 ?75 74 91 92 0 0 1 38 84 43 0 74 92 90 0 +5
 93 94 95 95 38 92 39 0 82 96 84 0 +5 21 97 98 99 38 90 47 0 70 84 71 0 +5 100 1
01 102 103 50 93 265 0 73 0 104 105 +0 0 .0155 0 0 -1 -1 0 0 40 22 94 0 1 22 .00
1334370320483416 .3872519438415775 ??-.00745790423894811 -.0158121100671018 .015
5 -.004324577209274275 -.00849392024731668 .0155 -.002609111140925425 -.00611868
816745516 .0155 -.001663857733840845 -.00517476273439421 .0155 -.000760073052156
532 -.00460422211800095 .0155 -.0001297007978440226 -.00444882676802678 .0155 .0
00518902016639155 -.00451930764238905 .0155 .001289248516319104 -.00489322749885
276 .0155 .002919481551857585 -.00649029104494524 .0155 .00667652236100934 -.013
28031626620574 .0155 .00798955607078046 -.01952005800221905 .0155 .0075238979228
1836 -.02373571892805175 .0155 .00611737519924775 -.0268146936110952 .0155 .0042
1178952999846 -.02882527685181915 .0155 .001707028312441795 -.03004194459555505
 .0155 -.000722781240313336 -.03022243200317845 .0155 -.0029081205466429 -.02960
81813280997 .0155 -.00482983173652008 -.02831190010482995 .0155 -.00642416289803
894 -.02633375103260675 .0155 -.00770929113477142 -.02297802498170185 .0155 -.00
788634836965868 -.0181743977164314 .0155 -.00745790423894764 -.01581211006710185
 .0155 41 1 95 H-.00745790423894764 -.01581211006710185 .0155 14 73 234 106 ?107
 15 72 4 93 -0 0 107 15 26 50 104 264 0 108 93 100 0 +0 0 0 0 0 -1 -1 0 0 141 10
5 84 109 109 93 141 109 110 105 105 93 38 110 66 0 77 111 20 0 +5 93 112 113 113
 16 77 64 114 ?37 29 69 110 0 0 1 38 111 62 0 69 71 110 0 +5 21 115 116 117 38 2
0 70 0 29 110 6 0 +5 100 118 119 120 40 21 112 0 1 21 .00176463662959765 .399342
972891292 ??-.0001563287127362405 .004450966730175665 .0155 -.000888005518969401
 .00466153823220678 .0155 -.00187218096101222 .00535587362365979 .0155 -.0044122
6113331593 .00863604473423741 .0155 -.0077161117845664 .01702719497880215 .0155
 -.00790840970260309 .0217440533763059 .0155 -.00688794080345406 .02545912219590
91 .0155 -.00519285228691048 .0279566945578557 .0155 -.002704361042744855 .02969
953916865875 .0155 -.000182555734311231 .0302588832432499 .0155 .002099426423220
41 .029927256439909 .0155 .004126427239784095 .0288881865943391 .0155 .005858053
39357975 .02717598373575105 .0155 .00718876925914645 .0247516370039862 .0155 .00
7988526657853 .02068618630225645 .0155 .0072261650661711 .01494351381461714 .015
5 .00344139565242882 .00717472564676003 .0155 .00239362069522983 .00587738331659
911 .0155 .001120045267160374 .00478622851909313 .0155 .000452149372489889 .0045
0129647685916 .0155 -.000156328712736209 .00445096673017554 .0155 41 1 113 H-.00
0156328712736209 .00445096673017554 .0155 16 29 68 121 ?122 9 77 20 0 0 1 51 100
 263 0 15 104 21 123 +0 0 .0155 0 0 -1 .02 -1 0 0 40 12 118 0 1 12 .000784416955
007209 .3583407493246835 ??.00795393369379619 .0183503389286055 .0150002 .007655
941118297 .0184766491981953 .01095898786080576 .0065896754708771 .01888322475607
705 .00850431281553401 .00475977167073102 .0194253590350991 .00657327702944265 .
002493941686131565 .01984389716931065 .00544201264209222 -70019742361899e-18 .01
99998774305164 .00506702754492575 -.002662941529642715 .0198219257997225 .005496
57398478323 -.00495335731696277 .0193768999401476 .0067193486346381 -.0066556666
0557817 .0188600663316806 .0086074351428784 -.00765106316444818 .018478669661358
85 .01094032486258972 -.00798734451863705 .0183358208853763 .01443763794957176 -
.00795393369379647 .0183503389286054 .0150002 41 1 119 L.00795393369379619 .0183
503389286055 .0150002 41 1 120 L-.00795393369379647 .0183503389286054 .0150002 1
4 15 229 124 ?73 0 125 4 100 +0 0 73 0 26 52 21 262 0 107 100 126 127 +0 0 .015
 0 0 -1 .02 .707106781186548 .707106781186548 -1 0 0 141 123 90 128 128 100 141
 128 20 123 123 100 14 107 197 129 ?62 73 40 4 21 +62 62 62 73 26 52 126 261 0 1
30 21 131 0 +0 0 0 0 0 1 .0195 .707106781186548 .707106781186548 1 0 0 141 127 9
2 132 133 21 141 132 6 134 127 21 141 133 71 127 134 21 38 71 50 0 61 90 111 0 +
5 21 135 136 137 141 134 111 133 132 21 40 2 135 0 1 2 3330654238700415e-20 .093
1298944405856 ??-.00784587300057481 -.0178517359631732 .0155002 -.00795397987420
027 -.01835053689135055 .0149998 41 1 136 L-.00784587300057481 -.017851735963173
2 .0155002 41 1 137 L-.00795397987420027 -.01835053689135055 .0149998 14 130 250
 138 ?17 108 139 4 126 +0 0 17 108 26 50 131 260 0 140 126 141 0 +0 0 -.032 0 0
 -1 -1 0 0 14 140 218 142 ?143 144 145 4 131 +0 0 143 144 26 51 141 259 0 144 13
1 18 0 -0 0 -.032 0 0 1 .01 1 0 0 14 144 212 146 ?140 62 147 4 141 -0 0 140 62 2
6 52 18 258 0 143 141 5 0 +0 0 -.0315 0 0 1 .01 .707106781186548 .70710678118654
8 1 0 0 14 143 223 148 ?108 140 149 4 18 +0 0 108 140 26 81 1 148 368 85 143 150
 0 142 151 152 14 108 239 151 ?130 143 153 4 104 +0 0 130 143 26 15 149 227 0 15
4 143 155 13 26 257 0 0 0 0 0 0 8 15 17 154 0 149 154 154 0 156 91 0 0 -15 155 2
28 0 157 143 0 17 157 0 155 157 157 0 158 159 0 0 -17 158 0 147 158 158 0 157 15
9 0 0 +16 159 145 160 ?158 91 161 162 0 0 1 81 1 160 382 85 159 163 0 164 165 16
6 16 91 147 164 ?156 82 159 96 0 0 1 16 161 156 165 ?167 159 168 169 0 0 1 31 16
2 267 0 159 169 96 0 -0 0 -.0315 0 0 -1 -1 0 0 .01 31 169 268 0 161 170 162 0 -0
 0 0 0 0 -1 1 1224646799147352e-31 0 .01 31 96 266 0 91 162 92 0 +0 0 -.032 0 0
 -1 -1 0 0 .0095 31 170 269 0 168 81 169 0 +0 0 0 0 0 -1 -1 0 0 .0195 16 168 160
 171 ?172 161 44 170 0 0 1 31 81 270 0 36 173 170 0 -0 0 .0155 0 0 -1 -1 0 0 .01
95 31 173 271 0 64 174 81 0 +0 0 .015 0 0 -1 -1 0 0 .02 16 64 120 175 ?63 80 176
 173 80 80 1 31 174 272 0 176 0 173 0 -0 0 5e-4 0 0 -1 -1 0 0 .02 16 176 116 177
 ?178 64 0 174 0 0 1 81 1 177 389 85 176 179 0 175 0 180 17 178 0 125 178 178 0
 181 176 0 0 +15 125 180 0 178 15 182 17 181 0 139 181 181 0 178 176 0 0 -15 139
 254 0 181 130 183 15 183 255 0 184 130 0 17 184 0 183 184 184 0 172 168 0 0 -17
 172 0 185 172 172 0 184 168 0 0 +15 185 244 0 172 108 0 15 182 181 0 53 15 0 17
 53 0 182 186 63 51 122 29 0 187 -17 186 0 182 46 53 47 187 80 0 66 +17 63 0 182
 53 46 54 59 64 0 122 +17 122 0 188 78 28 54 53 29 0 0 +17 187 0 40 42 41 51 186
 80 0 28 -15 40 201 0 42 107 0 17 42 0 40 38 187 56 28 9 0 43 -17 41 0 40 187 38
 47 75 82 0 186 -16 80 122 189 ?186 36 64 173 64 64 1 17 28 0 188 122 76 51 42 9
 0 0 +15 188 57 0 76 17 65 17 76 0 188 28 78 56 37 77 0 0 -17 78 0 188 76 122 10
 33 69 0 0 +17 33 0 32 59 30 54 78 69 0 63 -16 69 60 190 ?78 77 61 111 0 0 1 81
 1 190 376 85 69 191 0 114 68 192 80 1 85 0 193 8001 0 0 0 0 3 5 0 0 0 FFFFTFTFF
FFFFF2 81 1 191 332 194 69 0 190 195 196 197 81 1 114 375 85 77 198 0 121 190 19
9 81 1 68 377 85 61 195 0 190 87 200 83 3 192 .596078431372549 .666666666666667
 .686274509803922 81 1 195 331 194 61 0 68 201 191 202 81 1 87 378 85 70 196 0 6
8 83 203 83 3 200 .596078431372549 .666666666666667 .686274509803922 81 1 196 33
3 194 70 0 87 191 204 205 83 3 203 .596078431372549 .666666666666667 .6862745098
03922 80 1 194 206 207 9000 1 1 1 1 1 1 1 1 0 FFFFTFTFFFFFFF3 81 1 204 334 194 4
4 0 208 196 209 210 84 32 205 0896f1849a44e4909714586a6e70226d16 44 137 208 ?43
 168 36 81 36 36 1 81 1 208 385 85 44 204 0 171 79 211 81 1 209 335 194 82 0 88
 204 212 213 84 32 210 1483cead67c7c985a78ad20ecdfabef981 1 88 380 85 82 209 0 8
3 164 214 81 1 212 336 194 80 0 189 209 86 215 84 32 213 48133ae7ed53782b030cbb1
a2c0710fc81 1 189 387 85 80 212 0 79 175 216 81 1 86 337 194 74 0 83 212 217 218
 84 32 215 3ecaa8521ddfeefebe2de916b89e5d1281 1 217 338 194 140 0 219 86 220 221
 84 32 218 a41908257ed5d58d43c832e67194e9c281 3 219 350 222 140 217 142 0 223 22
4 225 0 81 1 220 339 194 17 0 223 217 226 227 84 32 221 e54dd6eea7cddc52f575245f
89cf6d2414 17 11 228 ?0 130 188 4 5 -0 0 0 130 26 81 3 223 351 222 17 220 228 21
9 229 230 231 0 81 1 226 340 194 144 0 229 220 232 233 84 32 227 1706d1275fe80d8
fd80863aff146beaa81 3 229 352 222 144 226 146 223 234 235 236 0 81 1 232 341 194
 15 0 234 226 237 238 84 32 233 1573b4f17023166ecd11363acfe4ce8e81 3 234 353 222
 15 232 124 229 239 240 241 0 81 1 237 342 194 108 0 242 232 243 244 84 32 238 6
6544a8508fbaff9621986152742a81b81 3 242 355 222 108 237 151 239 150 245 246 0 81
 1 243 343 194 73 0 239 237 247 248 84 32 244 05f483b6c76a21706ba4bd27011cf9dd81
 3 239 354 222 73 243 106 234 242 249 250 0 81 1 247 344 194 143 0 150 243 251 2
52 84 32 248 b0b310068a14f1984caf12031b7eaf0681 3 150 356 222 143 247 148 242 25
3 254 255 0 81 1 251 345 194 130 0 253 247 256 257 84 32 252 1c6c8dfa1d6613612e0
fd7e4c05401d481 3 253 357 222 130 251 138 150 258 259 260 0 81 1 256 346 194 62
 0 258 251 261 262 84 32 257 9e89895fa7b4da8c0e98c2a0fc805a2614 62 245 263 ?144
 107 32 4 21 +107 107 144 107 26 81 3 258 358 222 62 256 263 253 264 265 266 0 8
1 1 261 347 194 107 0 264 256 0 267 84 32 262 7408a7ce4d1735a57fd5d4518567daba81
 3 264 359 222 107 261 129 258 0 268 269 0 84 32 267 efd33c6b6ddf1f48420de4419c3
8589780 3 222 270 271 9000 0 0 0 0 3 6 0 0 0 FFFFTFTTFFFFFF1 1 3 81 1 129 364 85
 107 264 0 106 263 272 82 1 268 0 82 1 269 124 81 1 106 363 85 73 239 0 124 129
 273 81 1 263 365 85 62 258 0 129 146 274 83 3 272 .596078431372549 .66666666666
6667 .686274509803922 81 1 146 366 85 144 229 0 263 142 275 83 3 274 .5960784313
72549 .666666666666667 .686274509803922 81 1 142 367 85 140 219 0 146 148 276 83
 3 275 .596078431372549 .666666666666667 .686274509803922 83 3 276 .596078431372
549 .666666666666667 .686274509803922 81 1 124 362 85 15 234 0 0 106 277 83 3 27
3 .596078431372549 .666666666666667 .686274509803922 83 3 277 .596078431372549 .
666666666666667 .686274509803922 79 27 271 MONIKER/MONIKER_DATA_ATTRIB82 1 265 0
 82 1 266 124 81 1 138 370 85 130 253 0 151 228 278 82 1 259 0 82 1 260 123 81 1
 151 369 85 108 242 0 148 138 279 81 1 228 371 85 17 223 0 138 27 280 83 3 278 .
596078431372549 .666666666666667 .686274509803922 81 1 27 373 85 9 201 0 228 121
 281 83 3 280 .596078431372549 .666666666666667 .686274509803922 81 1 201 330 19
4 9 0 27 198 195 282 81 1 121 374 85 29 283 0 27 114 284 83 3 281 .5960784313725
49 .666666666666667 .686274509803922 81 1 283 328 194 29 0 121 285 198 286 83 3
 284 .596078431372549 .666666666666667 .686274509803922 81 1 285 327 194 168 0 1
71 163 283 287 81 1 198 329 194 77 0 114 283 201 288 84 32 286 58ecb4911446c8d80
753eec10fa36bf584 32 288 5a2ddd579001b80f26e806c8537c7b1381 1 171 384 85 168 285
 0 165 208 289 81 1 163 326 194 159 0 160 290 285 291 84 32 287 247c7462435db820
010b99acbc5a5c0481 1 290 325 194 36 0 79 292 163 293 84 32 291 b34a2c22b57f2c0d6
6989fd515cea2ba81 1 79 386 85 36 290 0 208 189 294 81 1 292 324 194 91 0 164 295
 290 296 84 32 293 6cdb4eb8af9ec85b8f16b1d410c9cae181 1 164 381 85 91 292 0 88 1
60 297 81 1 295 323 194 64 0 175 179 292 298 84 32 296 435973136e8e3bfc96ecd1952
d2b9e7081 1 175 388 85 64 295 0 189 177 299 81 1 179 322 194 176 0 177 300 295 3
01 84 32 298 c27b661ee9cf1e0845efe19ba8648ea481 1 300 321 194 161 0 165 0 179 30
2 84 32 301 6cb0820a80816c798322f648d354291181 1 165 383 85 161 300 0 160 171 30
3 84 32 302 b72fa2fd07b2e542ed2041cdd657dce483 3 303 .596078431372549 .666666666
666667 .686274509803922 83 3 299 .596078431372549 .666666666666667 .686274509803
922 83 3 297 .596078431372549 .666666666666667 .686274509803922 83 3 294 .596078
431372549 .666666666666667 .686274509803922 83 3 289 .596078431372549 .666666666
666667 .686274509803922 84 32 282 d08631c1d203ff7c051ca01de90c819883 3 279 .5960
78431372549 .666666666666667 .686274509803922 82 1 254 0 82 1 255 122 82 1 249 0
 82 1 250 117 82 1 245 0 82 1 246 118 82 1 240 0 82 1 241 116 82 1 235 0 82 1 23
6 110 82 1 230 0 82 1 231 69 82 1 224 0 82 1 225 24 83 3 216 .596078431372549 .6
66666666666667 .686274509803922 83 3 214 .596078431372549 .666666666666667 .6862
74509803922 83 3 211 .596078431372549 .666666666666667 .686274509803922 17 43 0
 72 37 45 56 38 44 0 76 +79 15 207 UGS/ObjectState84 32 202 e3cbbf05a8e9e38fceac
66ebd388a91383 3 199 .596078431372549 .666666666666667 .686274509803922 84 32 19
7 ee514adf45ae0a7de4aa12c2ab6624a079 15 193 SDL/TYSA_COLOUR17 46 0 182 63 186 39
 66 70 0 59 -17 66 0 65 75 60 47 46 70 0 0 +83 3 180 .596078431372549 .666666666
666667 .686274509803922 17 167 0 153 167 167 0 304 161 0 0 +15 153 243 0 167 108
 185 17 304 0 305 304 304 0 167 161 0 0 -15 305 217 0 304 144 0 17 156 0 145 156
 156 0 154 91 0 0 +15 145 222 0 156 140 0 83 3 166 .596078431372549 .66666666666
6667 .686274509803922 15 147 216 0 158 144 305 83 3 152 .596078431372549 .666666
666666667 .686274509803922 40 2 115 0 1 2 33306542387003e-18 .0931298944405854 ?
?-.00795397987420027 .01835053689135055 .0149998 -.00784587300057481 .0178517359
631732 .0155002 41 1 116 L-.00795397987420027 .01835053689135055 .0149998 41 1 1
17 L-.00784587300057481 .0178517359631732 .0155002 40 12 101 0 1 12 .00078441695
5007209 .3583407493246835 ??-.00795393369379619 -.0183503389286055 .0150002 -.00
7655941118297 -.0184766491981953 .01095898786080576 -.0065896754708771 -.0188832
2475607705 .00850431281553401 -.00475977167073102 -.0194253590350991 .0065732770
2944265 -.002493941686131565 -.01984389716931065 .00544201264209222 700197423618
99e-18 -.0199998774305164 .00506702754492575 .002662941529642715 -.0198219257997
225 .00549657398478323 .00495335731696277 -.0193768999401476 .0067193486346381 .
00665566660557817 -.0188600663316806 .0086074351428784 .00765106316444818 -.0184
7866966135885 .01094032486258972 .00798734451863705 -.0183358208853763 .01443763
794957176 .00795393369379647 -.0183503389286054 .0150002 41 1 102 L-.00795393369
379619 -.0183503389286055 .0150002 41 1 103 L.00795393369379647 -.01835033892860
54 .0150002 40 2 97 0 1 2 33306542387003e-18 .0931298944405854 ??.00795397987420
027 -.01835053689135055 .0149998 .00784587300057481 -.0178517359631732 .0155002
 41 1 98 L.00795397987420027 -.01835053689135055 .0149998 41 1 99 L.007845873000
57481 -.0178517359631732 .0155002 83 3 89 .596078431372549 .666666666666667 .686
274509803922 19 16 1 0 1 0 8 4 S40 2 22 0 1 2 3330654238700415e-20 .093129894440
5856 ??.00784587300057481 .0178517359631732 .0155002 .00795397987420027 .0183505
3689135055 .0149998 41 1 23 L.00784587300057481 .0178517359631732 .0155002 41 1
 24 L.00795397987420027 .01835053689135055 .0149998 141 19 92 306 307 5 141 306
 6 308 19 5 141 307 84 19 309 5 141 309 90 307 310 5 141 310 71 309 311 5 141 31
1 111 310 312 5 141 312 110 311 308 5 141 308 20 312 306 5 74 20 14 8 0 313 261
 314 264 315 12 177 2 0 0 0 0 0 0 0 0 0 0 0 0 81 2 313 320 316 1 0 314 0 0 317 3
18 81 1 314 349 319 1 313 315 0 0 320 81 3 315 360 321 1 314 12 0 0 322 323 324
 81 2 12 361 325 1 315 2 0 0 326 0 80 2 325 321 327 9000 2 2 2 2 3 6 0 0 0 FFTFF
FFFFFFFFF2 3 83 1 326 9530 79 22 327 MONIKER/BODY_ID_ATTRIB80 3 321 222 328 9000
 0 0 0 0 3 6 0 0 0 FFTFFFFFFFFFFF3 3 1 84 38 322 {5554713c-713c-4d4e-afea-22c8a6
0c1607}84 21 323 NX 2406.7001-Eleandro82 1 324 0 79 25 328 MONIKER/GUID_TABLE_AT
TRIB80 1 319 329 330 9000 0 0 0 0 3 5 0 0 0 FFTFFFFFFFFFFF1 82 1 320 -1 79 19 33
0 UG2/PMARK_ATTRIBUTE80 2 316 331 332 8004 0 0 0 0 3 5 0 0 0 FFTFFFFFFFFFFF2 3 8
3 1 317 7830.64 84 8 318 Kg/Cu M 79 16 332 SDL/TYSA_DENSITY80 1 11 85 333 8040 0
 0 0 0 3 5 0 0 0 TTTFFFFFFFFFFF2 83 3 13 .596078431372549 .666666666666667 .6862
74509803922 79 17 333 SDL/TYSA_COLOUR_21 0 
